<?xml version="1.0" encoding="utf-8"?>
<!-- Generator: Adobe Illustrator 27.5.0, SVG Export Plug-In . SVG Version: 6.00 Build 0)  -->
<svg version="1.1" xmlns="http://www.w3.org/2000/svg" xmlns:xlink="http://www.w3.org/1999/xlink" x="0px" y="0px"
	 viewBox="0 0 2500 2500" style="enable-background:new 0 0 2500 2500;" xml:space="preserve">
<g id="Background">
	<rect style="fill:#FFFFFF;" width="2500" height="2500"/>
</g>
<g id="Illustration">
	<g id="Wedding_party_1_">
		<ellipse style="fill:#F2E6DC;" cx="1250" cy="1250" rx="915.734" ry="915"/>
		<g>
			<path style="fill:#8B865C;" d="M1878.743,2045.949c-25.316,0-48.48-10.792-68.897-32.109c-0.843-0.881-0.813-2.279,0.069-3.122
				c0.878-0.842,2.275-0.815,3.123,0.067c20.309,21.208,43.339,31.54,68.552,30.699c75.084-2.499,132.047-108.97,146.901-180.142
				c15.648-74.979,12.439-131.73,2.806-193.872c-0.188-1.206,0.638-2.334,1.844-2.521c1.208-0.187,2.336,0.639,2.521,1.844
				c9.707,62.619,12.937,119.82-2.849,195.451c-15.139,72.541-73.624,181.075-151.077,183.654
				C1880.736,2045.933,1879.737,2045.949,1878.743,2045.949z"/>
			<g>
				<path style="fill:#9E9569;" d="M2105.336,1724.815c-16.748,22.214-41.168,24.101-50.743,14.15
					c-9.575-9.951-6.948-34.561,16.068-50.185c22.911-15.553,56.499-19.692,56.499-19.692S2123.245,1701.061,2105.336,1724.815z"/>
				<path style="fill:#8B865C;" d="M2041.504,1753.439c-0.578,0-1.158-0.226-1.592-0.677c-0.845-0.878-0.819-2.276,0.06-3.122
					l68.61-66.067c0.875-0.845,2.277-0.821,3.123,0.059c0.845,0.878,0.82,2.276-0.06,3.122l-68.61,66.067
					C2042.608,1753.234,2042.056,1753.439,2041.504,1753.439z"/>
			</g>
			<g>
				<path style="fill:#9E9569;" d="M1992.279,1709.829c26.402,21.552,27.588,51.531,14.977,62.781
					c-12.611,11.25-42.591,6.869-60.645-22.042c-17.971-28.779-21.492-70.088-21.492-70.088S1964.047,1686.783,1992.279,1709.829z"
					/>
				<path style="fill:#8B865C;" d="M2038.657,1810.487c-0.606,0-1.212-0.25-1.648-0.739l-94.658-106.176
					c-0.813-0.911-0.733-2.307,0.179-3.118c0.908-0.809,2.303-0.734,3.116,0.178l94.658,106.176
					c0.813,0.911,0.733,2.307-0.179,3.118C2039.706,1810.302,2039.182,1810.487,2038.657,1810.487z"/>
			</g>
			<g>
				<path style="fill:#9E9569;" d="M2025.508,1607.962c15.898,19.563,12.268,41.451,1.449,47.708
					c-10.819,6.257-31.879-1.407-40.628-25.049c-8.709-23.534-5.074-53.976-5.074-53.976S2008.508,1587.043,2025.508,1607.962z"/>
				<path style="fill:#8B865C;" d="M2033.482,1669.342c-0.761,0-1.503-0.394-1.913-1.1l-41.786-72.001
					c-0.612-1.055-0.252-2.406,0.802-3.019c1.061-0.613,2.409-0.252,3.019,0.802l41.786,72.001c0.612,1.055,0.252,2.406-0.802,3.019
					C2034.239,1669.246,2033.857,1669.342,2033.482,1669.342z"/>
			</g>
			<g>
				<path style="fill:#9E9569;" d="M2110.274,1876.802c-30.484,15.196-58.286,3.928-63.354-12.205
					c-5.068-16.132,11.241-41.664,45-46.216c33.605-4.531,72.689,9.275,72.689,9.275S2142.871,1860.554,2110.274,1876.802z"/>
				<path style="fill:#8B865C;" d="M2028.789,1872.187c-0.94,0-1.812-0.604-2.107-1.547c-0.365-1.164,0.282-2.404,1.445-2.769
					l108.361-34.013c1.167-0.368,2.405,0.283,2.769,1.446c0.365,1.164-0.282,2.403-1.445,2.768l-108.361,34.013
					C2029.231,1872.154,2029.007,1872.187,2028.789,1872.187z"/>
			</g>
			<g>
				<path style="fill:#9E9569;" d="M1981.143,1850.326c24.068,13.976,28.889,38.002,20.17,48.702
					c-8.719,10.7-33.459,11.034-51.743-9.954c-18.201-20.893-26.365-53.755-26.365-53.755S1955.407,1835.381,1981.143,1850.326z"/>
				<path style="fill:#8B865C;" d="M2015.064,1912.766c-0.49,0-0.983-0.163-1.393-0.497l-73.851-60.234
					c-0.945-0.771-1.087-2.162-0.317-3.107c0.772-0.944,2.161-1.088,3.108-0.315l73.851,60.234c0.945,0.771,1.087,2.162,0.317,3.107
					C2016.341,1912.488,2015.705,1912.766,2015.064,1912.766z"/>
			</g>
			<g>
				<path style="fill:#8B865C;" d="M1919.07,1984.623c-0.378,27.829-18.952,43.791-32.552,41.423s-26.023-23.781-16.698-49.998
					c9.282-26.098,33.918-49.298,33.918-49.298S1919.474,1954.865,1919.07,1984.623z"/>
				<path style="fill:#776E42;" d="M1883.216,2045.891c-0.125,0-0.252-0.011-0.38-0.033c-1.201-0.209-2.008-1.352-1.799-2.553
					l16.28-93.882c0.207-1.201,1.35-2.005,2.553-1.799c1.201,0.209,2.008,1.352,1.799,2.553l-16.28,93.882
					C1885.204,2045.133,1884.271,2045.891,1883.216,2045.891z"/>
			</g>
			<g>
				<path style="fill:#9E9569;" d="M2023.477,2000.222c-22.274,16.664-46.256,11.671-52.683-0.553
					c-6.427-12.224,2.95-35.124,29.409-43.713c26.339-8.55,59.755-3.165,59.755-3.165S2047.295,1982.403,2023.477,2000.222z"/>
				<path style="fill:#8B865C;" d="M1954.809,2010.009c-0.794,0-1.561-0.43-1.956-1.181c-0.569-1.079-0.153-2.415,0.925-2.983
					l84.304-44.321c1.089-0.569,2.415-0.152,2.983,0.927c0.569,1.079,0.153,2.415-0.925,2.982l-84.304,44.322
					C1955.505,2009.927,1955.154,2010.009,1954.809,2010.009z"/>
			</g>
		</g>
		<g>
			<g>
				<g>
					<g>
						<path style="fill:#FFFFFF;" d="M825.612,1602.382c0,0-31.031,20.115-55.342,99.487
							c116.829,64.242,175.824,95.325,177.006,93.261c0.021-0.037,0.023-0.084,0.008-0.142c4.738-10.139,7.092-19.583,8.067-28.018
							c8.905-77.027-89.23-138.555-97.401-143.538C847.171,1616.415,836.391,1609.399,825.612,1602.382z"/>
						<path style="fill:#84524D;" d="M853.957,1545.888l-36.649,68.736c-7.79,14.61-2.136,32.774,12.568,40.372
							c13.361,6.905,29.772,2.719,38.2-9.744l33.427-49.429L853.957,1545.888z"/>
					</g>
					<g>
						<path style="fill:#D3BBA3;" d="M735.134,1676.948c0,0-17.721,57.417-16.495,121.46c0,0,114.28,0,141.803,0
							c-0.026,0-4.471-79.501-88.441-121.46H735.134z"/>
						<path style="fill:#84524D;" d="M708.219,1621.815c0.888,2.331,15.608,44.167,23.654,67.048
							c4.725,13.437,19.18,21.009,32.784,16.82c0.22-0.068,0.441-0.138,0.663-0.211c12.814-4.21,20.15-17.715,17.32-30.911
							l-14.768-68.881L708.219,1621.815z"/>
					</g>
					<g>
						<path style="fill:#D3BBA3;" d="M895.366,860.889c0,0,105.946,236.323,110.3,454.502
							c4.158,208.362-110.3,314.306-110.3,314.306l-65.373-63.944c0,0,77.161-342.846-81.507-491.484l-21.175-192.75
							L895.366,860.889z"/>
						<path style="fill:#D3BBA3;" d="M703.974,1650.769c0,0,43.528,12.282,93.42-12.983c0,0-25.419-454.423,20.327-628.083
							l-15.838-119.294l-181.944,30.702C619.939,921.111,559.71,1242.577,703.974,1650.769z"/>
						<path style="fill:#363E44;" d="M798.457,1133.753c-0.115,0-0.233-0.009-0.351-0.028c-1.204-0.191-2.025-1.323-1.834-2.528
							l8.102-50.952c0.193-1.203,1.322-2.029,2.529-1.834c1.205,0.191,2.025,1.323,1.834,2.527l-8.102,50.953
							C800.461,1132.977,799.523,1133.753,798.457,1133.753z"/>
					</g>
				</g>
				<g>
					<g>
						<g>
							<path style="fill:#84524D;" d="M973.414,699.696c0,0,53.998-146.691,74.991-194.058
								c22.047-49.746,61.836-119.979,71.582-114.283c5.551,3.244,2.104,13.946-9.011,41.936c1.976-0.853,8.599-1.954,13.256,1.9
								c6.89,5.704,3.813,12.54,3.828,13.269c0.646-0.343,8.221-3.862,13.48-0.825c5.923,3.42,7.262,9.073,6.634,14.407
								c1.631-0.802,9.108-3.06,14.011,0.111c6.374,4.122,6.025,12.521,3.4,18.215c-4.815,10.444-18.682,38.655-24.111,54.511
								c-10.684,31.203-33.763,147.106-61.116,188.119C1054.723,688.891,973.414,699.696,973.414,699.696z"/>
							<g>
								<path style="fill:#363E44;" d="M1103.067,530.447c-0.059,0-0.12-0.002-0.18-0.007c-1.215-0.098-2.121-1.163-2.023-2.379
									c0.922-11.41-2.635-20.088-5.493-27.062c-3.03-7.392-5.646-13.776-0.136-18.959c3.051-2.87,5.318-7.962,6.555-14.726
									c0.315-1.717-0.907-2.592-1.29-2.82c-0.39-0.231-1.764-0.9-3.152,0.216l-27.539,22.182c-0.951,0.764-2.34,0.615-3.105-0.335
									c-0.765-0.95-0.616-2.34,0.334-3.105l27.539-22.181c2.36-1.901,5.572-2.127,8.182-0.572c2.592,1.543,3.918,4.451,3.376,7.41
									c-1.429,7.808-4.078,13.577-7.875,17.148c-3.157,2.97-1.839,6.661,1.197,14.067c2.876,7.018,6.815,16.63,5.808,29.092
									C1105.173,529.572,1104.206,530.447,1103.067,530.447z"/>
							</g>
						</g>
					</g>
					<path style="fill:#FFFFFF;" d="M565.412,877.115l-46.344-144.268c59.055-82.953,224.055-74.333,313.325-61.022
						c132.781,19.799,199.732-147.148,199.732-147.148l107.178,56.748c-52.736,228.177-222.222,258.19-222.222,258.19l22.681,118.8
						c-17.921,13.917-52.001,36.602-88.427,51.969c0,0-60.396,22.699-264.265,26.68l-14.201-60.638L565.412,877.115z"/>
					<path style="fill:#84524D;" d="M419.684,918.162c16.026,6.206,23.826-0.899,40.475,3.209
						c16.052,3.961,32.331,7.137,48.725,9.431c17.375-53.462,59.442-85.632,59.442-85.632l-64.672-90.547
						c0,0-71.358,48.361-92.455,150.206C411.111,905.257,419.77,917.735,419.684,918.162z"/>
					<path style="fill:#84524D;" d="M411.99,899.441c-15.302,57.382,143.242,126.439,184.466,144.746
						c4.718,4.285,12.433,9.972,22.839,11.676c11.863,1.943,15.861-3.149,28.698-3.049c21.667,0.169,31.644,15.429,36.886,9.818
						c3.598-3.852-1.831-12.995-8.95-20.047c-7.31-7.24-15.081-8.842-14.62-10.464c0.505-1.779,8.19,0.871,18.049,3.289
						c4.58,1.123,15.258,11.958,20.949,7.421c4.537-3.617-3.748-17.661-16.338-24.267c-8.908-4.673-18.424-2.494-18.47-4.331
						c-0.035-1.378,5.668-2.537,10.88-2.071c8.601,0.769,19.645,11.737,24.801,7.459c5.052-4.191-2.399-16.33-13.595-23.139
						c-9.44-5.741-19.936-2.803-20.006-5.086c-0.05-1.606,4.376-3.898,14.653-5.729c8.578-1.528,26.243,1.035,25.985-8.186
						c-0.216-7.756-18.704-10.885-36.28-10.619c-11.645,0.176-23.409,1.719-30.232,2.332c1.815-3.156,4.815-7.891,9.295-13.005
						c7.99-9.121,12.046-11.35,10.271-16.541c-1.829-5.349-11.201-2.916-20.767,2.509c-11.411,6.471-16.988,15.636-21.129,20.147
						c-19.873-13.077-108.583-74.801-128.456-87.878C461.934,860.048,420.229,868.545,411.99,899.441z"/>
					<path style="fill:#FFFFFF;" d="M597.07,940.312c-11.745,32.054-23.49,64.108-35.235,96.162
						c-83.846-19.525-146.616-62.91-153.16-115.276c-3.418-27.356,1.364-57.707,20.55-92.261
						c33.579-60.477,83.169-93.663,112.006-117.232c35.593,22.406,71.185,44.813,106.778,67.219
						c-24.268,24.091-48.704,49.031-73.243,74.842c-12.116,12.744-24.018,25.45-35.71,38.108
						C558.395,908.02,577.732,924.166,597.07,940.312z"/>
					<path style="fill:#E6D0BE;" d="M536.327,890.198c-0.533,0-1.067-0.191-1.49-0.58l-15.185-13.9
						c-0.899-0.823-0.961-2.22-0.138-3.12c0.822-0.899,2.219-0.963,3.121-0.137l15.185,13.9c0.899,0.823,0.961,2.22,0.138,3.12
						C537.522,889.956,536.925,890.198,536.327,890.198z"/>
					<path style="fill:#363E44;" d="M917.078,839.235c-1.055,0-1.986-0.757-2.174-1.831l-2.54-14.602
						c-0.209-1.202,0.596-2.345,1.798-2.554c1.207-0.214,2.344,0.596,2.555,1.797l2.54,14.602c0.209,1.202-0.596,2.345-1.797,2.554
						C917.331,839.224,917.203,839.235,917.078,839.235z"/>
					<path style="fill:#E6D0BE;" d="M512.037,1008.919c-0.328,0-0.661-0.073-0.975-0.229c-1.094-0.54-1.543-1.864-1.004-2.958
						l41.959-85.022c0.539-1.093,1.863-1.544,2.958-1.003c1.095,0.54,1.543,1.864,1.004,2.958l-41.959,85.022
						C513.635,1008.466,512.851,1008.919,512.037,1008.919z"/>
					<path style="fill:#E6D0BE;" d="M793.602,1014.439c-1.109,0-2.064-0.833-2.191-1.96L761.598,748.58
						c-0.137-1.212,0.734-2.306,1.946-2.442c1.199-0.138,2.305,0.734,2.442,1.946l29.813,263.899
						c0.137,1.212-0.734,2.305-1.946,2.442C793.769,1014.435,793.685,1014.439,793.602,1014.439z"/>
					<path style="fill:#E6D0BE;" d="M1116.024,629.08c-0.39,0-0.785-0.103-1.143-0.32l-98.272-59.626
						c-1.043-0.633-1.376-1.991-0.743-3.034c0.631-1.043,1.99-1.375,3.033-0.743l98.272,59.626c1.043,0.633,1.376,1.991,0.743,3.034
						C1117.499,628.702,1116.77,629.08,1116.024,629.08z"/>
				</g>
				<g>
					<path style="fill:#84524D;" d="M744.796,569.24c-16.052,0.201-28.902,13.384-28.702,29.448l0.76,61.509
						c0.2,16.063,24.813,40.655,40.866,40.655h1.38c16.052-2.208,16.084-25.319,15.884-41.381l-0.76-61.233
						C774.023,582.175,760.847,569.039,744.796,569.24z"/>
					<path style="fill:#84524D;" d="M697.287,508.322c1.878-1.742,20.11-18.152,41.948-13.774
						c16.249,3.258,26.966,15.168,41.923,37.865c17.614,26.728,24.412,45.167,20.919,55.754
						c-5.518,16.728-53.619,25.379-83.52,13.109c-21.583-8.857-36.211-30.302-38.34-53.713
						C678.096,524.217,696.089,509.434,697.287,508.322z"/>
					<g>
						<path style="fill:#FFFFFF;" d="M732.869,551.918c0,0,7.974,5.673,18.276,6.955c2.18,0.271,0.195-17.767-2.018-17.028
							C739.467,545.069,732.869,551.918,732.869,551.918z"/>
						<path style="fill:#363E44;" d="M781.278,547.408c0,0-11.705-8.328-25.073-7.082c-2.481,0.231-4.844,0.776-7.048,1.51
							c-2.272,5.47-1.705,11.928,1.982,17.032c2.182,0.272,4.466,0.351,6.803,0.133C771.31,557.755,781.278,547.408,781.278,547.408
							z"/>
					</g>
					<path style="fill:#363E44;" d="M779.436,573.883c-0.384,0-0.77-0.027-1.156-0.082c-4.659-0.669-6.543-4.925-6.743-5.408
						c-0.466-1.128,0.071-2.419,1.199-2.884c1.125-0.466,2.419,0.072,2.883,1.198c0.04,0.093,1.045,2.4,3.288,2.722
						c1.822,0.261,3.671-0.833,4.5-2.661c0.501-1.112,1.814-1.603,2.922-1.1c1.112,0.503,1.603,1.812,1.1,2.923
						C785.964,571.825,782.785,573.883,779.436,573.883z"/>
					<path style="fill:#84524D;" d="M783.96,539.219c0.868,1.295,2.323,3.061,4.614,4.296c2.762,1.49,4.696,1.103,5.755,2.567
						c0.709,0.982,1.084,2.871-0.837,6.904L783.96,539.219z"/>
					<path style="fill:#363E44;" d="M743.093,447.02c-4.058,2.34-12.386,7.143-16.443,9.483c1.909,1.551,3.395,3.54,4.248,5.84
						c1.742,4.697,0.228,8.944-0.262,10.173c-0.291-1.403-1.35-5.601-5.215-9.056c-1.799-1.608-3.68-2.582-5.311-3.185
						c-4.902,2.827-9.804,5.654-14.706,8.481c3.463,2.429,8.017,6.094,7.003,9.572c-1.995,6.842-15.942,7.788-25.354,14.374
						c-7.581,5.304-18.46,17.328-14.174,41.087c-4.928,5.742-12.002,16.098-11.906,29.138c0.168,22.802,22.199,45.636,55.096,51.87
						c3.539,0.088,19.13-19.676,8.399-25.136c-4.138-8.832-8.276-17.663-12.415-26.495c6.524,5.889,13.048,11.777,19.572,17.667
						c2.368-1.613,4.737-3.226,7.105-4.84c-5.608-4.445-14.95-13.201-20.617-27.211c-2.272-5.616-3.454-10.844-4.069-15.224
						c4.753-0.532,11.846-1.917,19.326-5.948c17.834-9.613,34.306-30.259,30.105-52.501
						C760.818,461.05,748.371,449.444,743.093,447.02z"/>
					<path style="fill:#363E44;" d="M793.491,555.195c-0.319,0-0.643-0.069-0.949-0.215c-1.101-0.525-1.568-1.842-1.044-2.944
						c1.383-2.903,1.305-4.296,1.041-4.662c-0.129-0.18-0.612-0.32-1.389-0.535c-0.923-0.255-2.188-0.605-3.624-1.38
						c-2.121-1.143-3.938-2.829-5.4-5.01c-0.679-1.013-0.409-2.385,0.605-3.064c1.01-0.68,2.384-0.409,3.064,0.604
						c1.058,1.578,2.345,2.783,3.828,3.582c0.999,0.539,1.867,0.779,2.705,1.011c1.286,0.356,2.744,0.759,3.791,2.204
						c1.511,2.094,1.304,5.086-0.633,9.15C795.107,554.73,794.316,555.195,793.491,555.195z"/>
					<g>
						<path style="fill:#84524D;" d="M729.724,559.993c9.881,5.111,14.391,16.029,10.074,24.387
							c-4.317,8.358-15.827,10.989-25.708,5.878c-9.881-5.111-14.391-16.03-10.074-24.387
							C708.333,557.513,719.843,554.881,729.724,559.993z"/>
						<path style="fill:#363E44;" d="M719.848,585.816c-0.221,0-0.444-0.033-0.665-0.103c-0.773-0.244-1.536-0.559-2.263-0.936
							c-6.093-3.152-8.816-10.045-6.068-15.367c0.695-1.345,1.679-2.487,2.922-3.395c0.986-0.72,2.367-0.503,3.085,0.482
							c0.719,0.985,0.504,2.367-0.482,3.086c-0.685,0.5-1.223,1.124-1.601,1.854c-1.63,3.159,0.24,7.383,4.173,9.417
							c0.505,0.262,1.031,0.479,1.563,0.647c1.164,0.367,1.808,1.607,1.442,2.771C721.656,585.214,720.786,585.816,719.848,585.816z
							"/>
					</g>
					<g>
						<polygon style="fill:#FFFFFF;" points="713,652.82 758.824,698.643 779.803,650.612 816.241,683.737 776.767,726.8 
							758.824,701.404 731.771,730.665 689.26,669.935 						"/>
						<path style="fill:#E6D0BE;" d="M776.49,727.352c-0.064,0-0.127-0.003-0.191-0.008c-0.679-0.059-1.293-0.428-1.663-1.001
							l-12.146-18.771c-0.663-1.024-0.37-2.391,0.654-3.054c1.025-0.663,2.393-0.369,3.054,0.655l10.603,16.386l34.964-37.73
							l-31.281-29.967c-0.881-0.844-0.91-2.242-0.067-3.122c0.845-0.88,2.244-0.91,3.123-0.067l32.849,31.469
							c0.87,0.834,0.911,2.212,0.092,3.096l-38.37,41.407C777.691,727.098,777.103,727.352,776.49,727.352z"/>
						<path style="fill:#E6D0BE;" d="M731.219,733.977c-0.067,0-0.134-0.003-0.201-0.009c-0.652-0.059-1.245-0.406-1.617-0.946
							l-39.198-56.866c-0.692-1.004-0.44-2.379,0.565-3.072c1.003-0.692,2.379-0.44,3.071,0.565l37.694,54.682l20.208-20.209
							c0.863-0.862,2.26-0.862,3.123,0c0.863,0.863,0.863,2.261,0,3.123l-22.084,22.084
							C732.364,733.747,731.802,733.977,731.219,733.977z"/>
					</g>
				</g>
			</g>
			<g>
				<g>
					<g>
						<g>
							<g>
								<path style="fill:#E2A18D;" d="M1447.725,700.774c12.023-43.82-67.188-54.025-107.813-63.253
									c-35.39-8.039-140.052-29.263-145.011,5.198c-4.951,34.412,38.057,58.667,107.313,84.91
									C1457.589,786.506,1437.515,737.987,1447.725,700.774z"/>
								<g>
									<path style="fill:#E2A18D;" d="M1285.971,651.481c0,0-52.301-145.374-60.797-163.713c-0.89-1.92-2.445-5.317-5.587-9.019
										c-11.642-13.718-26.414-9.646-45.237-18.485c-21.358-10.029-27.706-27.768-33.179-25.247
										c-3.807,1.754-3.296,9.119,3.132,22.541c0,0-0.001,0.002-0.002,0.001c-6.056-9.636-14.839-22.345-20.155-18.983
										c-5.93,4.21,2.636,20.354,8.296,29.867c-6.85-11.514-13.938-15.588-16.434-12.975c-3.929,4.113-0.697,14.279,8.947,29.146
										c-9.526-8.405-13.091-9.023-14.734-6.175c-3.001,5.2,5.158,17.273,14.006,26.84c9.961,10.771,21.423,15.668,28.724,18.584
										c0.002,0.001,0.004,0.003,0.004,0.003c20.31,61.645,27.016,82.484,42.583,132.548
										C1203.547,682.174,1291.283,704.991,1285.971,651.481z"/>
									<path style="fill:#363E44;" d="M1288.764,660.521c-0.899,0-1.73-0.553-2.06-1.419l2.062-0.79l-2.098,0.7
										c-1.637-4.266-9.923-25.86-12.181-32.111c-0.414-1.147,0.179-2.413,1.326-2.828c1.143-0.413,2.411,0.179,2.827,1.327
										c2.292,6.343,11.15,29.419,12.15,32.029c0.097,0.253,0.183,0.614,0.183,0.885c0,1.065-0.759,1.977-1.807,2.171
										C1289.033,660.509,1288.897,660.521,1288.764,660.521z"/>
									<path style="fill:#E2A18D;" d="M1189.724,472.398c-8.172-21.87-6.485-31.49-2.978-32.674
										c5.898-1.992,20.517,13.823,36.487,44.281C1213.608,481.608,1199.35,474.795,1189.724,472.398z"/>
									<path style="fill:#363E44;" d="M1188.431,513.477c-0.896,0-1.738-0.549-2.069-1.438c-1.341-3.603-4.094-8.742-9.59-12.764
										c-7.782-5.694-16.271-5.497-19.558-5.148c-1.196,0.126-2.299-0.749-2.429-1.963c-0.128-1.213,0.751-2.3,1.964-2.429
										c3.798-0.404,13.606-0.628,22.631,5.975c6.381,4.669,9.57,10.619,11.122,14.788c0.426,1.143-0.156,2.414-1.299,2.84
										C1188.947,513.432,1188.687,513.477,1188.431,513.477z"/>
									<path style="fill:#363E44;" d="M1209.817,474.161c-0.326,0-0.654-0.072-0.966-0.224c-4.348-2.119-9.275-3.19-14.491-4.325
										c-2.545-0.554-5.177-1.126-7.933-1.852c-1.18-0.311-1.884-1.518-1.573-2.698c0.309-1.179,1.521-1.885,2.697-1.573
										c2.665,0.701,5.249,1.264,7.749,1.807c5.483,1.193,10.662,2.319,15.487,4.67c1.097,0.534,1.553,1.856,1.018,2.953
										C1211.42,473.705,1210.634,474.161,1209.817,474.161z"/>
									<path style="fill:#363E44;" d="M1160.741,473.225c-0.343,0-0.691-0.08-1.016-0.249c-2.643-1.373-5.168-2.997-7.506-4.826
										c-0.715-0.56-1.394-1.124-2.04-1.69c-0.919-0.803-1.011-2.198-0.209-3.116c0.806-0.918,2.2-1.011,3.116-0.208
										c0.588,0.514,1.204,1.027,1.855,1.536c2.124,1.662,4.419,3.137,6.82,4.385c1.083,0.562,1.504,1.896,0.941,2.978
										C1162.31,472.791,1161.539,473.225,1160.741,473.225z"/>
									<path style="fill:#363E44;" d="M1141.011,500.438c-0.343,0-0.691-0.08-1.016-0.249c-2.644-1.374-5.169-2.998-7.506-4.827
										c-3.39-2.654-6.421-5.762-9.009-9.238c-0.728-0.978-0.525-2.362,0.453-3.09c0.978-0.73,2.362-0.525,3.09,0.453
										c2.353,3.161,5.108,5.986,8.189,8.398c2.122,1.662,4.417,3.137,6.819,4.386c1.083,0.562,1.504,1.896,0.941,2.978
										C1142.58,500.004,1141.809,500.438,1141.011,500.438z"/>
								</g>
							</g>
						</g>
						<g>
							<path style="fill:#EFBC73;" d="M1533.099,883.447l68.321-178.067l-55.556-27.774c-32.739-14.15-96.295-21.386-159.759-28.634
								l-4.027,69.535c-10.934,5.399-18.468,16.651-18.468,29.674c0,11.651,6.023,21.898,15.143,27.784l-5.063,87.23
								c0,0-62.433,53.481-83.6,125.324c-0.992,3.355-1.922,6.044-2.791,10.461h315.874
								C1582.037,928.313,1533.099,883.447,1533.099,883.447z"/>
							<path style="fill:#FFFFFF;" d="M1496.766,812.061c-11.089,0-21.314-5.06-28.053-13.882c-0.74-0.969-0.554-2.355,0.414-3.095
								c0.973-0.739,2.355-0.555,3.097,0.415c5.896,7.719,14.842,12.146,24.542,12.146c14.656,0,27.382-10.412,30.261-24.756
								c0.241-1.196,1.402-1.972,2.599-1.731c1.197,0.24,1.971,1.404,1.732,2.6C1528.067,800.157,1513.518,812.061,1496.766,812.061
								z"/>
						</g>
						<g>
							<path style="fill:#E2A18D;" d="M1459.344,910.339c9.319-2.655,17.866,1.268,18.271-0.455
								c0.303-1.292-4.848-3.504-9.856-4.088c-8.263-0.964-20.832,7.205-24.857,2.159c-3.942-4.943,5.468-14.921,17.364-19.14
								c10.03-3.558,19.713,1.716,20.227-0.421c0.362-1.504-3.719-3.857-13.053-7.6c-7.791-3.125-24.957-5.299-22.905-13.94
								c1.726-7.268,19.778-6.587,36.303-2.885c10.949,2.454,21.742,6.218,28.057,8.135c-1.093-3.331-2.993-8.383-6.214-14.083
								c-5.747-10.167-9.135-13.064-6.442-17.608c2.775-4.682,11.137-0.549,19.095,6.443c9.493,8.34,12.955,18.074,15.975,23.139
								c21.311-8.423,67.026-25.274,88.336-33.697c-1.631-1.166-49.237-25.445-56.507-34.678
								c0.04-31.11,30.684-106.114,39.633-94.608c19.079,17.792,133.252,119.495,126.57,148.304
								c-7.307,31.499-150.011,87.198-192.486,96.358c-5.291,3.112-13.683,6.957-23.833,6.52c-11.57-0.498-14.341-6.083-26.469-8.51
								c-20.47-4.096-32.874,8.328-36.717,2.01c-2.638-4.337,4.277-11.889,12.376-17.137c8.315-5.388,15.96-5.372,15.844-6.991
								c-0.128-1.776-7.897-0.787-17.669-0.444c-4.541,0.159-16.739,8.275-21.217,2.881
								C1435.601,925.703,1446.172,914.092,1459.344,910.339z"/>
							<path style="fill:#363E44;" d="M1528.349,883.495c-0.429,0-0.863-0.125-1.242-0.384c-4.402-3.003-11.357-6.247-19.079-8.899
								c-1.154-0.396-1.766-1.652-1.37-2.806c0.393-1.152,1.639-1.768,2.806-1.371c4.749,1.631,13.677,5.025,20.132,9.428
								c1.007,0.687,1.268,2.062,0.58,3.069C1529.749,883.158,1529.054,883.495,1528.349,883.495z"/>
						</g>
					</g>
				</g>
				<g>
					<path style="fill:#E2A18D;" d="M1483.75,508.705c-2.449-0.56-25.977-5.573-42.394,8.856
						c-12.216,10.737-15.495,26.116-17.098,52.744c-1.888,31.357,1.36,50.366,9.511,57.654
						c12.878,11.515,57.995-4.713,77.402-29.803c14.009-18.111,15.945-43.513,6.295-64.459
						C1507.842,512.809,1485.313,509.063,1483.75,508.705z"/>
					<path style="fill:#E2A18D;" d="M1506.906,593.746c0-15.245-12.359-27.604-27.604-27.604c-15.245,0-27.604,12.359-27.604,27.604
						v81.709c0,15.246,12.359,27.604,27.604,27.604c15.246,0,27.604-12.359,27.604-27.604V593.746z"/>
					<g>
						<ellipse style="fill:#363E44;" cx="1549.578" cy="499.667" rx="43.741" ry="43.782"/>
						<path style="fill:#363E44;" d="M1558.49,546.865c-27.689,0-50.214-15.782-50.214-35.18c0-19.398,22.526-35.18,50.214-35.18
							c27.689,0,50.217,15.782,50.217,35.18C1608.706,531.083,1586.178,546.865,1558.49,546.865z M1558.49,480.921
							c-25.254,0-45.797,13.8-45.797,30.763c0,16.963,20.544,30.763,45.797,30.763c25.254,0,45.8-13.8,45.8-30.763
							C1604.29,494.722,1583.744,480.921,1558.49,480.921z"/>
						<path style="fill:#363E44;" d="M1566.113,557.27c-0.108,0-0.216,0-0.323-0.001c-11.439-0.078-23.733-4.299-34.62-11.885
							c-22.722-15.835-32.2-41.669-21.128-57.588c5.406-7.772,14.758-12.041,26.356-12.041c0.108,0,0.214,0.001,0.323,0.001
							c11.436,0.078,23.731,4.299,34.618,11.885c22.722,15.835,32.2,41.669,21.128,57.588
							C1587.061,553.001,1577.709,557.27,1566.113,557.27z M1513.669,490.318c-9.683,13.921-0.701,36.998,20.024,51.442
							c10.162,7.081,21.573,11.02,32.127,11.092c10.246,0.069,18.422-3.532,23.02-10.145c9.683-13.921,0.701-36.998-20.024-51.442
							c-10.162-7.081-21.57-11.021-32.125-11.092C1526.391,480.11,1518.267,483.706,1513.669,490.318z"/>
					</g>
					<path style="fill:#363E44;" d="M1452.122,633.596c-1.102,0-2.055-0.824-2.191-1.945c-0.145-1.211,0.718-2.311,1.93-2.456
						c17.615-2.116,43.962-14.81,57.562-32.39c0.75-0.965,2.133-1.141,3.099-0.396c0.964,0.746,1.141,2.133,0.395,3.098
						c-14.846,19.193-42.267,31.88-60.529,34.074C1452.299,633.591,1452.208,633.596,1452.122,633.596z"/>
					<path style="fill:#363E44;" d="M1433.298,528.477c-0.225-0.283-0.283-0.674-0.156-1.012
						c11.327-30.112,58.864-37.181,84.22-19.67c27.266,18.83,30.161,57.445,21.223,79.301
						c-5.314,12.993-18.866,31.333-29.212,26.745c-12.518-5.551-1.965-28.262-19.71-53.58
						C1476.094,540.901,1445.301,543.589,1433.298,528.477z"/>
					<g>
						
							<ellipse transform="matrix(0.5383 -0.8428 0.8428 0.5383 203.7743 1527.0695)" style="fill:#E2A18D;" cx="1495.523" cy="577.566" rx="19.77" ry="16.704"/>
						<path style="fill:#363E44;" d="M1501.426,585.975c-0.533,0-1.065-0.191-1.488-0.577c-0.901-0.822-0.966-2.219-0.142-3.12
							c0.371-0.407,0.712-0.85,1.012-1.317c2.331-3.637,1.861-8.121-1.052-9.994c-0.673-0.432-1.428-0.696-2.247-0.784
							c-1.212-0.13-2.09-1.218-1.96-2.431c0.129-1.212,1.195-2.093,2.43-1.961c1.51,0.161,2.911,0.653,4.167,1.46
							c4.958,3.189,6.026,10.409,2.379,16.095c-0.436,0.676-0.927,1.317-1.466,1.907
							C1502.621,585.733,1502.026,585.975,1501.426,585.975z"/>
					</g>
					<g>
						<path style="fill:#FFFFFF;" d="M1478.349,565.132c0,0-8.147-3.636-17.592-2.935c-2.009,0.149,2.974,15.963,4.814,14.91
							C1473.661,572.478,1478.349,565.132,1478.349,565.132z"/>
						<g>
							<defs>
								<path id="SVGID_1_" d="M1478.349,565.132c0,0-11.983-5.348-23.73-1.821c-11.747,3.527-18.811,14.594-18.811,14.594
									s11.983,5.348,23.73,1.821S1478.349,565.132,1478.349,565.132z"/>
							</defs>
							<clipPath id="SVGID_00000034054307147640632830000011164386238448753294_">
								<use xlink:href="#SVGID_1_"  style="overflow:visible;"/>
							</clipPath>
							
								<ellipse style="clip-path:url(#SVGID_00000034054307147640632830000011164386238448753294_);fill:#363E44;" cx="1449.855" cy="573.974" rx="16.039" ry="16.054"/>
						</g>
					</g>
					<path style="fill:#363E44;" d="M1443.409,606.615c-1.751,0-3.524-0.543-5.04-1.631c-0.99-0.712-1.216-2.092-0.505-3.082
						c0.709-0.991,2.092-1.217,3.084-0.505c1.469,1.055,3.403,1.079,4.706,0.057c1.598-1.255,1.348-3.515,1.337-3.611
						c-0.145-1.204,0.707-2.311,1.911-2.464c1.236-0.156,2.303,0.683,2.467,1.884c0.242,1.786-0.116,5.41-2.989,7.665
						C1446.948,606.051,1445.191,606.615,1443.409,606.615z"/>
					<path style="fill:#363E44;" d="M1426.935,593.702c-0.431,0-0.869-0.126-1.251-0.39c-3.515-2.422-5.096-4.793-4.837-7.248
						c0.177-1.706,1.188-2.733,2.079-3.638c0.565-0.574,1.152-1.168,1.699-2.056c0.815-1.318,1.287-2.872,1.406-4.622
						c0.084-1.216,1.098-2.139,2.355-2.053c1.216,0.083,2.135,1.137,2.053,2.354c-0.17,2.473-0.861,4.708-2.057,6.643
						c-0.809,1.311-1.676,2.191-2.31,2.833c-0.401,0.408-0.815,0.83-0.833,0.999c-0.039,0.362,0.528,1.483,2.95,3.152
						c1.005,0.692,1.257,2.067,0.565,3.072C1428.326,593.369,1427.636,593.702,1426.935,593.702z"/>
				</g>
				<g>
					<path style="fill:#E2A18D;" d="M1379.348,1568.221l-42.978-276.004c112.819-116.848,134.013-209.606,177.287-275.332
						l-127.593,4.029c0,0-141.729,167.112-159.827,216.237c-19.653,53.346,29.598,202.345,69.061,306.758
						c4.021,10.64,3.311,22.473-1.944,32.561l-18.094,34.73L1379.348,1568.221z"/>
					<polygon style="fill:#E6D0BE;" points="1277.274,1603.141 1269.608,1615.697 1235.833,1632.416 1234.688,1667.989 
						1320.026,1671.924 1339.727,1623.288 1349.129,1600.455 1343.372,1671.884 1407.404,1674.497 1384.382,1590.822 
						1384.398,1590.822 1383.814,1562.517 					"/>
					<path style="fill:#E2A18D;" d="M1533.132,1552.104c-17.231-95.785-25.196-193.866-45.28-238.42l62.418-218.071l-162.543-6.539
						c3.886,43.919-42.728,165.793-15.113,219.261c30.547,59.146,63.559,140.725,82.188,230.307
						c2.15,10.341,3.522,20.825,0.739,31.012l-13.737,50.276l89.315-67.154L1533.132,1552.104z"/>
					<polygon style="fill:#D3BBA3;" points="1536.53,1540.642 1543.984,1575.363 1543.968,1575.363 1580.744,1654.596 
						1517.268,1663.284 1512.985,1593.73 1505.598,1621.94 1494.257,1667.241 1409.461,1677.626 1404.645,1642.362 
						1435.151,1620.235 1444.488,1598.422 					"/>
					<path style="fill:#EFBC73;" d="M1595.408,979.947c35.256,45.833-79.074,189.375-99.892,331.742l-294.136-28.204
						c0.644-41.306,48.745-177.956,92.673-306.223L1595.408,979.947z"/>
				</g>
			</g>
			<g>
				<path style="fill:#84524D;" d="M1109.056,431.776l-8.53,15.852c-2.496,4.227-1.181,9.736,3.117,12.341
					c3.975,2.409,9.183,1.126,12.052-2.531l5.225-6.661l-9.59,15.339c-2.959,4.733-2.348,11.064,1.835,14.76
					c4.852,4.287,12.027,3.651,16.079-1.023l9.091-10.486c0,0,4.466-5.823,8.203-11.034c1.192-1.663,1.588-4.603,0.952-6.547
					c-1.75-5.352-5.046-9.75-9.795-11.107c-2.898-0.828-5.08,0.322-5.935-0.276c-0.173-0.121-0.358-0.446-0.537-0.862
					c-1.015-2.357-2.585-4.457-4.678-5.944C1117.519,427.184,1114.514,428.772,1109.056,431.776z"/>
				<path style="fill:#363E44;" d="M1120.69,485.962c-3.301,0-6.462-1.201-8.986-3.431c-4.862-4.296-5.827-11.856-2.246-17.586
					l1.125-1.798c-2.717,0.601-5.607,0.211-8.083-1.29c-5.255-3.185-6.992-10.072-3.873-15.352l4.769-8.87
					c0.578-1.074,1.915-1.478,2.991-0.898c1.074,0.578,1.476,1.917,0.899,2.991l-4.814,8.947c-1.938,3.284-0.879,7.469,2.316,9.406
					c2.887,1.749,6.916,0.869,9.169-2.006l5.227-6.661l3.61,2.534l-9.59,15.339c-2.451,3.92-1.839,9.051,1.424,11.934
					c1.867,1.648,4.246,2.466,6.678,2.304c2.441-0.163,4.668-1.27,6.27-3.118l9.091-10.486c-0.001,0-0.001,0-0.001,0
					c-0.004,0,4.039-5.277,7.585-10.19c0.716-0.988,2.094-1.212,3.084-0.499c0.989,0.714,1.212,2.094,0.498,3.083
					c-3.601,4.99-7.704,10.342-7.745,10.396l-9.175,10.589c-2.38,2.746-5.687,4.391-9.313,4.632
					C1121.295,485.952,1120.992,485.962,1120.69,485.962z"/>
			</g>
		</g>
		<g>
			<g>
				<g>
					<path style="fill:#363E44;" d="M1058.609,2120.828h-218.61l13.24-86.126h88.364l64.191,19.443
						c31.316,8.482,52.816,35.769,52.816,66.708V2120.828z"/>
					<path style="fill:#363E44;" d="M1250.736,2120.828h-224.519l12.749-86.126h94.288l64.428,19.443
						c31.316,8.482,53.053,35.769,53.053,66.708V2120.828z"/>
					<g>
						<g>
							<path style="fill:#2D353A;" d="M916.287,1299.318c0,0-29.323,83.534-36.37,111.654
								c-40.128,160.138-54.659,643.558-54.659,643.558l144.28-14.699c0,0,50.069-356.419,68.217-490.054
								c10.401,24.847,22.117,59.564,31.294,86.282c4.234,12.329,5.174,25.539,2.73,38.344l-52.185,375.756l128.085-13.249
								c0,0,112.589-390.255,90.328-457.985c-19.69-59.907-113.874-228.145-113.874-228.145l-5.956-51.462H916.287z"/>
						</g>
						<path style="fill:#FFFFFF;" d="M1037.758,1551.998c-0.114,0-0.229-0.009-0.344-0.027c-1.206-0.189-2.029-1.318-1.841-2.523
							l12.672-81.014c0.189-1.206,1.332-2.027,2.522-1.841c1.205,0.189,2.029,1.318,1.841,2.523l-12.672,81.014
							C1039.765,1551.22,1038.826,1551.998,1037.758,1551.998z"/>
					</g>
					<path style="fill:#FFFFFF;" d="M1019.593,2052.369c-1.118,0-2.077-0.845-2.194-1.981c-0.126-1.213,0.756-2.298,1.969-2.423
						l128.085-13.25c1.234-0.129,2.298,0.756,2.424,1.97c0.126,1.213-0.756,2.298-1.969,2.423l-128.085,13.25
						C1019.745,2052.365,1019.668,2052.369,1019.593,2052.369z"/>
					<path style="fill:#FFFFFF;" d="M825.257,2056.786c-1.119,0-2.079-0.847-2.194-1.984c-0.124-1.214,0.759-2.297,1.972-2.421
						l144.279-14.723c1.225-0.126,2.298,0.76,2.421,1.973c0.124,1.214-0.759,2.297-1.972,2.421l-144.279,14.723
						C825.407,2056.782,825.331,2056.786,825.257,2056.786z"/>
				</g>
				<g>
					<path style="fill:#363E44;" d="M957.76,984.258c44.082-41.914,112.072-35.142,175.933-3.681L957.76,984.258z"/>
					<g>
						<path style="fill:#84524D;" d="M1161.108,1139.101c47.09-12.214,241.72-54.149,227.73-118.699
							c-10.347-47.741-66.649-39.715-220.913,1.605C1173.765,1056.528,1155.267,1104.58,1161.108,1139.101z"/>
						<g>
							<g>
								<path style="fill:#E2A18D;" d="M1407.486,812.828c-4.537-1.814-10.316,1.241-11.527,2.162
									c-0.342-4.48-2.351-8.904-7.766-10.76c-4.808-1.647-10.465,2.46-10.941,2.846c-0.13-0.596,1.299-6.703-5.277-10.277
									c-4.445-2.415-9.709-0.445-11.195,0.572c-0.299-0.681-2.012-5.754-7.184-7.241c-14.132-4.062-26.893,27.896-38.284,71.969
									c-23.936,92.606-28.511,148.269-28.755,149.185c-4.41,16.376,74.327,10.948,100.671,25.419
									c0.4-2.126,12.184-26.523,14.937-160.843c0.287-14.018,8.768-39.279,11.045-48.628
									C1414.448,822.138,1413.385,815.187,1407.486,812.828z"/>
								<path style="fill:#E2A18D;" d="M1329.092,832.608c-7.704-41.458-17.589-43.835-22.036-41.12
									c-15.101,9.216,1.46,109.942,1.46,109.942S1320.277,863.29,1329.092,832.608z"/>
								<path style="fill:#363E44;" d="M1401.228,853.373c-0.17,0-0.345-0.02-0.52-0.062c-6.166-1.484-10.794-6.237-12.403-12.024
									c-2.392,4.509-7.494,6.992-12.59,5.973c-3.114-0.621-5.78-2.428-7.507-5.091c-1.561-2.404-2.174-5.224-1.764-8.028
									c-2.885,2.233-6.058,2.667-8.59,1.812c-2.879-0.974-5.413-3.778-5.961-8.12c-2.111,1.555-4.824,2.222-7.548,1.678
									c-2.56-0.51-4.751-1.996-6.172-4.185c-1.421-2.189-1.887-4.796-1.311-7.342l2.661-11.772
									c0.269-1.19,1.449-1.937,2.642-1.667c1.188,0.269,1.935,1.451,1.667,2.641l-2.661,11.773
									c-0.311,1.374-0.06,2.781,0.707,3.963c0.766,1.181,1.949,1.983,3.33,2.258c2.45,0.49,4.904-0.842,5.827-3.167l4.201-11.59
									c0.405-1.107,1.607-1.704,2.726-1.358c1.126,0.347,1.781,1.515,1.49,2.656l-2.659,10.421
									c-1.548,5.532,0.201,8.858,2.476,9.627c2.424,0.817,6.099-0.978,8.443-6.863l2.374-6.969
									c0.377-1.11,1.561-1.733,2.692-1.411c1.128,0.319,1.812,1.467,1.553,2.612l-3.41,15.078
									c-0.436,1.924-0.084,3.895,0.99,5.549c1.074,1.655,2.732,2.778,4.667,3.164c3.44,0.685,6.869-1.181,8.161-4.437
									l4.283-10.792c0.416-1.049,1.551-1.617,2.646-1.313c1.087,0.303,1.771,1.378,1.585,2.492l-0.975,5.827
									c-1.087,6.487,3.071,12.773,9.465,14.311c1.184,0.285,1.915,1.478,1.63,2.663
									C1403.13,852.692,1402.224,853.373,1401.228,853.373z"/>
							</g>
						</g>
						<polygon style="fill:#FFFFFF;" points="1301.896,912.855 1300.056,888.563 1402.377,895.924 1400.905,921.688 						"/>
						<path style="fill:#363E44;" d="M1333.917,1093.204c88.335-27.973,72.708-110.001,70.668-176.669l-108.21-11.778
							l-12.514,88.334L1333.917,1093.204z"/>
					</g>
					<path style="fill:#363E44;" d="M845.134,1076.273c0,0,9.674-97.773,167.707-99.09c150.48-1.254,271.02,15.908,271.02,15.908
						l50.056,100.112l-172.81,45.897l-3.859,260.329l-43.431,13.25l-30.917-60.362l-44.167,64.779l-161.946-20.611l21.105-252.311
						L845.134,1076.273z"/>
					<path style="fill:#FFFFFF;" d="M1038.733,1419.305c-0.092,0-0.185-0.006-0.279-0.018l-161.947-20.611
						c-1.21-0.154-2.065-1.26-1.912-2.469c0.154-1.211,1.264-2.071,2.47-1.912l160.604,20.44l43.406-63.661
						c0.439-0.644,1.171-1.007,1.963-0.96c0.777,0.049,1.472,0.504,1.828,1.198l30.917,60.362c0.555,1.085,0.126,2.416-0.959,2.972
						c-1.084,0.557-2.415,0.126-2.973-0.959l-29.222-57.052l-42.072,61.706C1040.144,1418.949,1039.458,1419.305,1038.733,1419.305z
						"/>
					<polygon style="fill:#FFFFFF;" points="1078.484,1167.552 1005.608,975.425 1080.692,976.897 					"/>
					<path style="fill:#FFFFFF;" d="M1082.901,1354.527c-1.22,0-2.208-0.989-2.208-2.208v-156.193l-7.056-11.996
						c-0.095-0.161-0.168-0.332-0.219-0.509c-2.773-6.105-78.639-127.577-107.775-174.083c-0.42-0.671-0.448-1.517-0.074-2.215
						c0.374-0.699,1.095-1.143,1.887-1.164l16.987-0.459l-13.941-28.381c-0.538-1.095-0.086-2.418,1.008-2.956
						c1.093-0.54,2.419-0.087,2.956,1.008l15.458,31.469c0.332,0.675,0.297,1.472-0.092,2.116c-0.389,0.643-1.079,1.045-1.831,1.065
						l-16.564,0.448c89.986,143.662,103.804,167.134,105.926,171.469l0.08-0.047l7.362,12.514c0.199,0.34,0.305,0.726,0.305,1.12
						v156.794C1085.109,1353.538,1084.12,1354.527,1082.901,1354.527z"/>
					<path style="fill:#FFFFFF;" d="M1082.903,1197.734c-0.176,0-0.353-0.021-0.531-0.065c-1.184-0.292-1.907-1.488-1.616-2.672
						l46.176-187.417l-17.852,1.88c-0.635,0.066-1.267-0.145-1.734-0.578c-0.467-0.434-0.724-1.049-0.704-1.687l1.104-35.334
						c0.039-1.218,0.961-2.175,2.276-2.138c1.219,0.038,2.176,1.057,2.138,2.276l-1.026,32.803l18.463-1.944
						c0.708-0.076,1.422,0.203,1.896,0.745c0.472,0.542,0.651,1.281,0.48,1.98l-46.928,190.471
						C1084.797,1197.06,1083.895,1197.734,1082.903,1197.734z"/>
					<g>
						<path style="fill:#84524D;" d="M980.404,1162.322l5.182,60.286l-15.523,67.886l-40.885-11.537
							c-40.724-12.901-66.328-27.123-72.085-92.114l-5.068-52.929L980.404,1162.322z"/>
						<path style="fill:#E2A18D;" d="M912.584,1272.86c35.381,13.093,40.081,16.67,115.752,30.072
							c32.219,5.706,59.345,8.823,75.977,13.542c6.021,0.361,41.6,17.771,45.927,7.27c3.229-7.838-24.772-20.142-31.386-24.516
							c6.607,1.146,48.777,24.485,53.712,12.458c5.124-12.489-37.626-28.991-43.185-31.729c0.523-0.04,56.544,21.725,62.248,10.354
							c5.543-11.049-42.19-27.604-52.718-32.646c9.833,2.759,53.849,15.376,57.453,6.561c5.567-13.617-43.821-29.099-78.292-38.564
							c13.65-10.557,19.053-18.628,15.911-22.119c-1.594-1.771-20.348-0.1-45.213,14.288
							c-12.864-3.519-85.232-22.388-127.853-34.963c-29.474,12.433-58.319,24.384-87.794,36.817
							C875.595,1252.141,898.861,1267.782,912.584,1272.86z"/>
						<polygon style="fill:#FFFFFF;" points="1078.484,1209.511 1054.928,1315.512 1007.816,1297.109 1028.428,1198.469 						"/>
						<path style="fill:#363E44;" d="M1052.72,1197.733l-26.5,114.099c-76.344-18.026-140.948-35.55-169.308-51.529
							c-25.71-15.846-15.214-107.309-11.777-184.03l157.529,29.445l-7.746,64.35c-1.032,8.573,4.661,16.512,13.112,18.286
							L1052.72,1197.733z"/>
						<path style="fill:#FFFFFF;" d="M1024.381,1313.12c-0.065,0-0.131-0.003-0.198-0.009
							c-27.573-2.454-77.64-18.009-126.057-33.053l-12.975-4.027c-1.164-0.361-1.817-1.598-1.456-2.763
							c0.36-1.165,1.594-1.818,2.763-1.456l12.978,4.028c48.197,14.975,98.034,30.46,125.139,32.872
							c1.214,0.108,2.111,1.181,2.004,2.395C1026.476,1312.256,1025.512,1313.12,1024.381,1313.12z"/>
						<path style="fill:#FFFFFF;" d="M1052.721,1199.942c-0.182,0-0.367-0.023-0.551-0.07l-68.644-17.667
							c-1.182-0.304-1.892-1.508-1.588-2.689c0.302-1.181,1.505-1.892,2.688-1.588l68.644,17.667
							c1.182,0.304,1.892,1.508,1.588,2.689C1054.603,1199.28,1053.706,1199.942,1052.721,1199.942z"/>
					</g>
				</g>
				<g>
					<polygon style="fill:#E2A18D;" points="1005.608,975.425 1053.088,1007.538 1080.968,978.001 1078.125,847.576 
						1008.719,846.501 					"/>
					<path style="fill:#E2A18D;" d="M1110.176,917.937c-14.12,16.941-72.069-3.595-72.069-3.595l-43.612-51.339
						c-7.922-29.994,9.968-60.736,39.958-68.665c29.989-7.929,60.722,9.958,68.644,39.952
						C1103.097,834.29,1124.557,900.683,1110.176,917.937z"/>
					<g>
						<path style="fill:#84524D;" d="M1086.45,791.704c-2.055-10.499-14.581-22.497-33.229-17.858
							c-12.725,3.165-22.23,13.352-36.375,21.104c-10.271,5.63-21.927,6.96-30.644,12.418
							c-15.908,9.962-18.264,27.988-13.231,45.857c5.271,18.715,24.823,30.397,36.413,27.153
							c7.094-1.986,24.277-13.867,24.277-13.867s-9.78-24.029,1.602-32.738c11.744-8.985,24.964-3.489,40.703-17.165
							C1082.507,810.923,1088.103,800.148,1086.45,791.704z"/>
						<path style="fill:#84524D;" d="M1004.808,874.418c-12.821,0.001-29.571-12.326-34.112-30.175
							c-5.458-21.455,0.157-38.933,15.407-47.952c4.811-2.845,10.211-4.449,15.93-6.146c5.057-1.502,10.287-3.055,15.132-5.552
							c5.34-2.752,10.031-5.866,14.57-8.878c7.469-4.956,14.525-9.638,22.862-11.489c11.372-2.521,19.442,0.778,24.218,3.992
							c5.943,3.998,10.13,10.163,11.203,16.492c1.631,9.623-4.904,20.939-11.882,26.7c-9.414,7.769-17.929,9.317-25.443,10.683
							c-5.852,1.064-10.907,1.983-15.793,5.528c-11.981,8.694-14.519,19.963-16.558,29.018c-1.848,8.208-3.445,15.296-11.252,17.269
							C1007.731,874.252,1006.296,874.418,1004.808,874.418z M1062.41,767.757c-2.102,0-4.386,0.234-6.856,0.782
							c-7.537,1.672-13.951,5.929-21.377,10.857c-4.638,3.078-9.433,6.26-14.989,9.124c-5.213,2.687-10.645,4.3-15.898,5.86
							c-5.449,1.618-10.595,3.146-14.937,5.714c-18.401,10.882-16.279,31.65-13.375,43.061
							c4.403,17.312,22.134,29.225,33.029,26.473c4.946-1.25,6.154-5.646,8.026-13.958c2.087-9.263,4.944-21.949,18.273-31.622
							c5.701-4.136,11.48-5.187,17.598-6.299c7.323-1.331,14.896-2.708,23.42-9.743c6.108-5.043,11.645-14.859,10.34-22.556
							c0,0,0,0,0,0c-0.862-5.082-4.431-10.279-9.314-13.566C1073.309,769.838,1068.676,767.757,1062.41,767.757z"/>
						<path style="fill:#84524D;" d="M980.518,813.714c3.192-8.477,0.104-19.209-6.984-22.909c-9.93-5.184-26.189,4.231-27.48,16.65
							c-0.749,7.212,3.509,15.809,11.196,18.565C966.586,829.367,977.129,822.713,980.518,813.714z"/>
						<path style="fill:#84524D;" d="M959.402,836.291c-1.938,0-3.902-0.319-5.844-1.015c-8.941-3.205-13.452-13.128-12.647-20.871
							c0.706-6.801,5.537-13.386,12.607-17.184c6.289-3.379,13.053-3.826,18.091-1.195c8.012,4.182,11.688,15.925,8.029,25.644
							C976.678,829.529,968.323,836.291,959.402,836.291z M964.285,798.734c-2.74,0-5.746,0.802-8.678,2.377
							c-5.798,3.115-9.747,8.384-10.304,13.75c-0.629,6.049,2.845,13.784,9.745,16.257c8.474,3.037,17.58-3.363,20.455-11.005
							c2.863-7.601,0.087-17.027-5.939-20.173C968.017,799.133,966.218,798.734,964.285,798.734z"/>
						<path style="fill:#84524D;" d="M974.76,925.669c2.299-9.354,0.115-16.981-0.91-19.958c0.072,2.83-0.042,12.225-6.764,20.906
							c-2.862,3.695-6.087,6.175-8.892,7.86c-11.243-4.777-22.488-9.554-33.731-14.331c20.385-6.275,27.6-15.323,30.523-22.13
							c5.47-12.738-1.879-22.775,3.658-36.241c4.981-12.116,16.931-18.586,25.501-22.044c12.43,2.216,24.86,4.432,37.291,6.648
							c-0.582,9.917,1.826,26.17,7.395,43.35c7.057,21.771,15.396,29.882,12.662,43.49c-1.388,6.902-6.503,16.585-24.931,26.055
							c-16.056-6.82-32.112-13.642-48.167-20.464C970.757,935.75,973.353,931.396,974.76,925.669z"/>
					</g>
					<path style="fill:#E2A18D;" d="M1012.428,883.297c6.708,7.936,17.042,10.228,23.083,5.12c6.041-5.108,5.5-15.682-1.208-23.618
						s-17.042-10.228-23.083-5.12C1005.179,864.787,1005.72,875.361,1012.428,883.297z"/>
					<path style="fill:#363E44;" d="M1021.378,881.439c-0.417,0-0.84-0.118-1.215-0.365c-3.146-2.078-5.276-5.221-5.843-8.621
						c-0.43-2.579,0.108-5.076,1.475-6.849c2.982-3.868,8.715-3.172,9.358-3.08c1.206,0.172,2.04,1.288,1.87,2.494
						c-0.169,1.206-1.284,2.052-2.493,1.879c-0.038-0.005-3.795-0.468-5.236,1.404c-0.62,0.805-0.845,2.054-0.617,3.426
						c0.367,2.194,1.795,4.258,3.922,5.662c1.017,0.672,1.297,2.042,0.625,3.06C1022.798,881.091,1022.095,881.439,1021.378,881.439
						z"/>
					<path style="fill:#84524D;" d="M1113.119,876.953c21.408,42.701,14.956,54.634,11.172,58.494
						c-13.526,13.792-70.795,14.752-90.144-28.354c-8.721-19.428-5.905-41.778-6.597-53.417c4.649,6.16,9.134,15.353,29.082,22.906
						C1083.197,886.641,1106.547,879.281,1113.119,876.953z"/>
					<path style="fill:#363E44;" d="M1094.446,896.157c-1.724,0-3.437-0.444-4.951-1.353c-4.74-2.849-4.729-8.517-4.727-8.757
						c0.014-1.221,1.111-2.208,2.234-2.183c1.22,0.014,2.197,1.014,2.183,2.234c0,0.026,0.029,3.384,2.586,4.92
						c2.061,1.24,4.842,0.87,6.754-0.901c0.893-0.827,2.29-0.775,3.121,0.122c0.828,0.895,0.774,2.293-0.121,3.121
						C1099.535,895.201,1096.977,896.157,1094.446,896.157z"/>
					<path style="fill:#E2A18D;" d="M1106.605,850.566c0.477,2.451,1.905,6.271,4.52,9.519c3.152,3.918,8.154,5.55,8.808,8.368
						c0.437,1.89-0.915,5.256-8.196,9.112L1106.605,850.566z"/>
					<g>
						<path style="fill:#FFFFFF;" d="M1044.621,858.489c0,0,8.548-7.994,20.558-11.168c2.555-0.675,3.136,21.05,0.404,20.533
							C1053.574,865.582,1044.621,858.489,1044.621,858.489z"/>
						<path style="fill:#363E44;" d="M1073.266,846.073c-2.814,0.115-5.513,0.585-8.063,1.258
							c-3.557,6.644-3.199,14.393,0.368,20.519c2.736,0.518,5.628,0.789,8.611,0.667c16.075-0.661,28.646-12.418,28.646-12.418
							S1089.339,845.412,1073.266,846.073z"/>
					</g>
					<g>
						<polygon style="fill:#FFFFFF;" points="1005.608,975.425 1053.088,1007.538 1015.546,1014.991 						"/>
						<polygon style="fill:#FFFFFF;" points="1080.968,978.001 1053.088,1007.538 1088.974,1010.023 						"/>
						<polygon style="fill:#363E44;" points="1053.088,1007.538 1024.655,991.527 1036.249,1035.419 						"/>
						<polygon style="fill:#363E44;" points="1074.895,1035.143 1053.088,1007.538 1076,987.663 						"/>
						<polygon style="fill:#363E44;" points="1047.291,1004.778 1049.223,1015.267 1058.885,1014.439 1058.333,1002.845 						"/>
					</g>
				</g>
			</g>
			<g>
				<g>
					<path style="fill:#FFFFFF;" d="M1356.621,2123.852c130.046,44.855,243.099,20.714,295.494,23.956
						c132.385,8.192,288.978,14.401,440.743,12.057c-80.859-104.802-192.021-183.582-195.13-435.768
						c-1.624-131.747-29.843-275.69-92.091-363.993c-10.371-14.683-21.611-24.89-27.681-32.028
						c-12.177-14.345-162.469-41.673-182.717-43.112c-14.031-0.997-64.11,59.476-88.334,94.959
						c-78.397,114.835-119.825,436.611-131.766,503.138c-10.306,57.417-19.672,81.2-48.584,156.057
						c-11.636,30.128-37.786,41.559-53.001,54.473C1288.056,2100.762,1328.43,2114.129,1356.621,2123.852z"/>
					<path style="fill:#E6D0BE;" d="M1639.986,2115.938c-0.095,0-0.194-0.006-0.291-0.019c-1.21-0.16-2.06-1.27-1.9-2.479
						c17.497-132.239,27.596-309.458,32.746-574.622c0.024-1.204,1.007-2.165,2.208-2.165c0.013,0,0.028,0,0.043,0.001
						c1.219,0.024,2.189,1.031,2.165,2.251c-5.154,265.335-15.264,442.707-32.785,575.115
						C1642.026,2115.13,1641.077,2115.938,1639.986,2115.938z"/>
					<path style="fill:#E6D0BE;" d="M2000.391,2113.81c-0.229,0-0.462-0.036-0.692-0.112
						c-49.444-16.317-84.289-63.324-86.702-116.972c-9.101-326.029-28.476-513.802-109.133-635.303l-2.754-3.323
						c-14.874-17.975-28.922-34.953-50.87-38.195c-1.206-0.178-2.04-1.301-1.861-2.507c0.177-1.207,1.29-2.043,2.508-1.862
						c23.623,3.489,38.875,21.922,53.626,39.748l2.823,3.407c0.052,0.061,0.099,0.125,0.142,0.191
						c39.77,59.869,66.096,138.817,82.852,248.455c17.434,114.063,23.319,254.479,27.081,389.229
						c2.329,51.79,35.957,97.192,83.672,112.938c1.158,0.382,1.788,1.631,1.404,2.79
						C2002.181,2113.221,2001.318,2113.81,2000.391,2113.81z"/>
					<path style="fill:#E6D0BE;" d="M1484.62,1600.083c-0.153,0-0.306-0.016-0.462-0.049c-1.195-0.254-1.954-1.427-1.702-2.62
						c32.908-154.43,76.764-256.217,114.457-265.64c1.18-0.297,2.381,0.424,2.677,1.607c0.297,1.183-0.423,2.382-1.607,2.678
						c-16.116,4.029-35.157,28.937-53.62,70.138c-20.764,46.339-40.676,112.778-57.586,192.138
						C1486.556,1599.371,1485.64,1600.083,1484.62,1600.083z"/>
					<path style="fill:#E6D0BE;" d="M1390.978,2128.714c-0.822,0-1.611-0.461-1.993-1.251c-0.528-1.099-0.067-2.418,1.033-2.948
						c82.035-39.485,90.776-173.255,99.23-302.621c0.08-1.216,1.102-2.145,2.349-2.06c1.216,0.079,2.139,1.131,2.06,2.348
						c-8.538,130.631-17.365,265.71-101.723,306.314C1391.625,2128.643,1391.299,2128.714,1390.978,2128.714z"/>
				</g>
				<path style="fill:#FFFFFF;" d="M1698.833,846.348c20.673-8.325,43.355-10.396,65.157-5.771
					c39.911,8.466,101.615,29.344,130.908,79.689c45.274,77.812,185.976,115.527,203.503,110.016
					c18.15,43.144,12.012,163.783-85.819,213.846c-97.832,50.063-170.741,14.703-170.741,14.703l-194.336-376.894L1698.833,846.348z
					"/>
				<path style="fill:#363E44;" d="M1677.156,873.66c20.238-10.969,45.311-20.483,66.147-5.078
					c12.755,9.43,11.097,28.132,20.918,38.995c14.286,15.802,35.692,12.812,46.428,29.055c17.857,27.016-15.446,46.22-3.571,65.246
					c9.943,15.932,37.488,7.813,57.091,27.671c15.049,15.246,13.82,48.524-0.564,68.096c-25.842,35.161-91.888,23.032-128.43,16.32
					c-54.357-9.983-107.307-19.708-130.12-64.156C1573.301,987.94,1618.815,905.283,1677.156,873.66z"/>
				<g>
					<g>
						<g>
							<path style="fill:#8B865C;" d="M1922.424,1072.804c-0.816,0.909,6.865,5.406,6.865,5.406s148.796-106.355,233.841-123.512
								C2131.925,937.878,2074.463,903.596,1922.424,1072.804z"/>
							<path style="fill:#8B865C;" d="M1920.325,1079.906c0,0,85.865-188.757,101.236-274.143
								c17.471,30.846,72.378,119.645-93.606,275.197L1920.325,1079.906z"/>
							<path style="fill:#776E42;" d="M2115.19,873.263c0,0-123.194,164.58-195.526,223.462c-2.578-1.171-9.987-4.835-8.532-6.786
								C1937.03,1055.217,2033.923,866.774,2115.19,873.263z"/>
						</g>
						<g>
							<g>
								<path style="fill:#D87355;" d="M2001.855,902.167c-5.094-2.755-20.574-16.159-26.888-25.684
									c-8.016-12.091-11.309-24.766-1.458-30.364c3.753-2.133,10.747-0.479,16.01,5.023c2.139-4.557,5.126-11.127,13.624-11.427
									c8.352-0.294,13.511,12.848,11.351,28.298C2012.219,884.288,2006.232,896.812,2001.855,902.167z"/>
								<path style="fill:#D87355;" d="M2015.275,900.927c-2.396-5.273-6.639-25.305-5.92-36.71
									c0.913-14.479,5.943-26.569,17.175-25.082c4.279,0.567,8.855,6.108,9.727,13.672c4.457-2.341,10.805-5.773,17.76-0.879
									c6.834,4.809,3.01,18.4-8.042,29.41C2034.334,892.936,2021.999,899.303,2015.275,900.927z"/>
								<path style="fill:#D87355;" d="M2013.836,908.335c1.748-5.522,11.999-23.247,20.166-31.241
									c10.367-10.148,22.195-15.767,29.547-7.146c2.801,3.285,2.493,10.464-1.92,16.669c4.878,1.243,11.893,2.94,13.786,11.231
									c1.861,8.147-10.076,15.687-25.656,16.473C2033.346,915.149,2019.919,911.627,2013.836,908.335z"/>
								<g>
									<path style="fill:#F7F1EB;" d="M2023.905,849.615c0.068,1.206-0.855,2.238-2.061,2.305
										c-1.206,0.068-2.238-0.855-2.305-2.061s0.855-2.238,2.061-2.305C2022.806,847.487,2023.838,848.41,2023.905,849.615z"/>
									<path style="fill:#F7F1EB;" d="M2017.583,873.573c-0.373,0-0.753-0.095-1.1-0.295c-1.057-0.608-1.421-1.958-0.813-3.016
										c1.956-3.398,3.27-7.061,3.901-10.885c0.479-2.892,0.559-5.849,0.239-8.789c-0.131-1.213,0.744-2.302,1.956-2.434
										c1.223-0.132,2.303,0.744,2.435,1.957c0.364,3.339,0.272,6.701-0.274,9.988c-0.718,4.347-2.208,8.508-4.427,12.367
										C2019.091,873.175,2018.347,873.573,2017.583,873.573z"/>
								</g>
								<g>
									<path style="fill:#D3BBA3;" d="M2027.92,861.379c0.048,0.852-0.605,1.582-1.457,1.63c-0.853,0.048-1.582-0.604-1.63-1.457
										c-0.048-0.853,0.605-1.582,1.457-1.63C2027.142,859.875,2027.872,860.527,2027.92,861.379z"/>
									<path style="fill:#F7F1EB;" d="M2020.415,880.843c-0.039,0-0.078-0.001-0.119-0.003c-1.216-0.064-2.152-1.103-2.09-2.32
										c0.233-4.443,1.244-8.745,3.004-12.789c0.826-1.893,1.818-3.729,2.95-5.455c0.669-1.02,2.034-1.304,3.058-0.636
										c1.018,0.669,1.302,2.038,0.634,3.057c-0.994,1.518-1.868,3.132-2.592,4.797c-1.549,3.556-2.437,7.344-2.642,11.256
										C2022.556,879.929,2021.582,880.843,2020.415,880.843z"/>
								</g>
								<g>
									<path style="fill:#D3BBA3;" d="M2036.063,856.927c0.048,0.852-0.605,1.582-1.457,1.63c-0.853,0.048-1.582-0.605-1.63-1.457
										c-0.048-0.853,0.604-1.582,1.457-1.63C2035.285,855.422,2036.015,856.074,2036.063,856.927z"/>
									<path style="fill:#F7F1EB;" d="M2026.723,879.291c-0.039,0-0.078-0.001-0.119-0.003c-1.216-0.064-2.152-1.103-2.09-2.32
										c0.233-4.443,1.244-8.745,3.004-12.789c1.335-3.063,3.084-5.934,5.202-8.533c0.768-0.944,2.161-1.089,3.108-0.318
										c0.945,0.77,1.087,2.161,0.317,3.107c-1.863,2.287-3.403,4.813-4.576,7.507c-1.548,3.556-2.437,7.343-2.642,11.256
										C2028.864,878.376,2027.89,879.291,2026.723,879.291z"/>
								</g>
								<g>
									<path style="fill:#D87355;" d="M2010.156,909.76c3.357-4.719,7.784-12.315,9.681-22.416
										c2.803-14.932,0.242-36.23-9.479-39.049c-1.853-0.537-6.644-1.18-14.765,6.035c-3.929-3.147-8.827-6.139-12.232-4.523
										c-6.446,3.059-5.623,21.72,0.392,34.871C1990.587,899.623,2003.866,906.884,2010.156,909.76z"/>
									<path style="fill:#FFFFFF;" d="M2006.287,907.427c-0.608,0-1.208-0.252-1.639-0.728
										c-0.38-0.421-9.366-10.457-13.983-22.681c-2.525-6.686-4.235-13.717-5.087-20.9c-0.142-1.211,0.723-2.309,1.932-2.453
										c1.216-0.142,2.31,0.723,2.454,1.933c0.809,6.828,2.435,13.51,4.833,19.86c1.988,5.264,4.913,10.175,7.499,13.951
										c-0.705-5.071-1.251-11.932-0.861-19.965c0.28-5.75,1.221-11.513,2.793-17.131c0.328-1.176,1.563-1.858,2.722-1.531
										c1.175,0.328,1.861,1.547,1.531,2.722c-1.484,5.3-2.37,10.736-2.633,16.156c-0.798,16.371,2.523,27.821,2.558,27.935
										c0.293,0.989-0.138,2.048-1.037,2.553C2007.029,907.335,2006.656,907.427,2006.287,907.427z"/>
								</g>
								<g>
									<path style="fill:#D87355;" d="M2009.934,909.957c-0.19-5.789,0.318-14.565,4.32-24.032
										c5.916-13.994,19.82-30.328,29.48-27.306c1.841,0.576,6.19,2.688,8.97,13.19c5.014-0.451,10.749-0.238,12.694,2.99
										c3.681,6.112-7.316,21.209-19.598,28.846C2031.845,912.323,2016.766,911.037,2009.934,909.957z"/>
									<path style="fill:#FFFFFF;" d="M2009.932,912.166c-1.186,0-2.165-0.942-2.204-2.136
										c-0.291-8.829,1.221-17.229,4.492-24.964c1.727-4.088,4.102-8.347,6.86-12.316c0.697-1.001,2.07-1.249,3.075-0.552
										c1.001,0.696,1.249,2.072,0.552,3.074c-2.588,3.721-4.809,7.702-6.42,11.514c-3.019,7.142-4.414,14.913-4.147,23.099
										c0.041,1.219-0.914,2.24-2.133,2.28C2009.981,912.165,2009.957,912.166,2009.932,912.166z"/>
									<path style="fill:#FFFFFF;" d="M2012.854,910.537c-0.794,0-1.546-0.43-1.941-1.156c-0.492-0.906-0.289-2.032,0.485-2.712
										c0.089-0.078,9.045-8.033,17.085-22.25c2.668-4.718,4.822-9.787,6.403-15.066c0.349-1.168,1.574-1.833,2.75-1.483
										c1.167,0.349,1.831,1.58,1.482,2.748c-1.673,5.595-3.959,10.97-6.791,15.975c-3.957,7-8.085,12.509-11.389,16.419
										c4.201-1.81,9.297-4.4,13.789-7.79c5.42-4.088,10.363-8.869,14.695-14.208c0.768-0.946,2.156-1.094,3.105-0.324
										c0.947,0.768,1.094,2.159,0.323,3.106c-4.557,5.618-9.759,10.648-15.463,14.952c-10.432,7.87-23.393,11.554-23.938,11.707
										C2013.25,910.51,2013.052,910.537,2012.854,910.537z"/>
								</g>
							</g>
							<g>
								<path style="fill:#D87355;" d="M2057.745,965.406c-1.291-4.029-2.67-18.923-1.181-27.136
									c1.891-10.427,6.566-18.773,14.589-16.74c3.057,0.774,5.906,5.183,5.897,10.745c3.432-1.32,8.329-3.272,12.96,0.869
									c4.551,4.069,0.623,13.605-8.33,20.656C2072.25,961.225,2062.761,964.797,2057.745,965.406z"/>
								<path style="fill:#D87355;" d="M2065.445,971.54c1.404-3.991,9.3-16.695,15.447-22.342
									c7.804-7.169,16.57-10.997,21.738-4.532c1.969,2.463,1.577,7.698-1.789,12.125c3.533,1.021,8.615,2.422,9.805,8.519
									c1.17,5.992-7.72,11.22-19.114,11.433C2079.532,976.968,2069.811,974.085,2065.445,971.54z"/>
								<path style="fill:#D87355;" d="M2060.94,974.716c3.714-2.026,18.082-6.183,26.429-6.266
									c10.597-0.105,19.673,2.916,19.187,11.178c-0.185,3.148-3.979,6.776-9.443,7.814c1.942,3.123,4.781,7.565,1.585,12.892
									c-3.14,5.235-13.245,3.171-21.854-4.295C2067.776,988.176,2062.481,979.528,2060.94,974.716z"/>
								<g>
									<path style="fill:#F7F1EB;" d="M2095.947,948.862c-0.574,0.67-1.583,0.747-2.252,0.173
										c-0.669-0.574-0.747-1.582-0.173-2.252s1.583-0.747,2.252-0.173C2096.444,947.184,2096.521,948.192,2095.947,948.862z"/>
									<path style="fill:#F7F1EB;" d="M2081.615,959.336c-0.958,0-1.84-0.627-2.12-1.592c-0.341-1.171,0.332-2.396,1.503-2.737
										c2.676-0.779,5.156-2.013,7.371-3.668c1.674-1.252,3.172-2.731,4.453-4.397c0.744-0.967,2.129-1.148,3.097-0.404
										c0.968,0.743,1.147,2.13,0.405,3.097c-1.527,1.986-3.315,3.749-5.312,5.242c-2.64,1.973-5.594,3.445-8.781,4.372
										C2082.027,959.307,2081.818,959.336,2081.615,959.336z"/>
								</g>
								<g>
									<path style="fill:#D3BBA3;" d="M2092.112,957.092c-0.406,0.473-1.119,0.528-1.592,0.122s-0.528-1.119-0.122-1.592
										c0.406-0.473,1.119-0.528,1.592-0.122S2092.518,956.619,2092.112,957.092z"/>
									<path style="fill:#F7F1EB;" d="M2079.428,964.599c-0.589,0-1.175-0.234-1.611-0.697c-0.835-0.89-0.789-2.287,0.099-3.122
										c2.424-2.273,5.193-4.069,8.232-5.337c1.421-0.594,2.905-1.069,4.408-1.414c1.186-0.274,2.372,0.469,2.646,1.658
										c0.274,1.188-0.47,2.373-1.658,2.646c-1.26,0.289-2.504,0.688-3.697,1.185c-2.549,1.064-4.872,2.571-6.908,4.482
										C2080.513,964.401,2079.969,964.599,2079.428,964.599z"/>
								</g>
								<g>
									<path style="fill:#D3BBA3;" d="M2098.656,958.864c-0.406,0.473-1.119,0.528-1.593,0.122
										c-0.473-0.406-0.528-1.119-0.122-1.592c0.406-0.474,1.119-0.528,1.592-0.122
										C2099.007,957.678,2099.062,958.391,2098.656,958.864z"/>
									<path style="fill:#F7F1EB;" d="M2083.539,966.97c-0.589,0-1.175-0.233-1.609-0.697c-0.837-0.889-0.792-2.286,0.097-3.121
										c2.417-2.272,5.187-4.068,8.229-5.337c2.301-0.96,4.727-1.602,7.214-1.908c1.24-0.154,2.314,0.713,2.461,1.923
										c0.149,1.21-0.712,2.312-1.922,2.461c-2.087,0.257-4.123,0.795-6.053,1.6c-2.551,1.065-4.874,2.572-6.906,4.48
										C2084.623,966.772,2084.082,966.97,2083.539,966.97z"/>
								</g>
								<g>
									<path style="fill:#D87355;" d="M2058.28,973.606c4.156-0.789,10.332-2.553,16.44-6.918
										c9.03-6.452,18.452-18.972,14.755-25.375c-0.705-1.22-2.905-3.983-10.834-4.287c-0.479-3.646-1.547-7.7-4.159-8.57
										c-4.944-1.648-13.949,8.603-17.431,18.577C2053.094,958.366,2056.419,968.909,2058.28,973.606z"/>
									<path style="fill:#FFFFFF;" d="M2058.537,971.464c-0.183,0-0.371-0.023-0.556-0.071c-0.996-0.26-1.682-1.173-1.652-2.203
										c0.013-0.419,0.358-10.363,4.151-19.243c2.071-4.846,4.749-9.46,7.962-13.713c0.733-0.975,2.115-1.167,3.093-0.432
										c0.973,0.735,1.167,2.12,0.431,3.093c-2.996,3.968-5.495,8.271-7.423,12.788c-1.212,2.833-2.04,5.824-2.605,8.523
										c2.081-2.676,4.796-5.796,8.189-9.002c3.086-2.918,6.532-5.507,10.244-7.697c1.048-0.62,2.405-0.27,3.023,0.78
										c0.619,1.05,0.27,2.404-0.781,3.024c-3.425,2.021-6.605,4.411-9.455,7.103c-8.587,8.116-12.62,15.784-12.661,15.86
										C2060.111,971.016,2059.346,971.464,2058.537,971.464z"/>
								</g>
								<g>
									<path style="fill:#D87355;" d="M2058.063,973.598c2.828-3.147,7.535-7.516,14.432-10.481
										c10.196-4.383,25.786-5.959,29.348,0.52c0.679,1.235,1.903,4.547-1.944,11.488c2.871,2.298,5.786,5.311,5.177,7.996
										c-1.151,5.083-14.583,7.478-24.919,5.291C2068.414,985.927,2061.118,977.622,2058.063,973.598z"/>
									<path style="fill:#FFFFFF;" d="M2058.063,975.806c-0.526,0-1.054-0.187-1.475-0.566c-0.908-0.815-0.983-2.212-0.168-3.118
										c4.369-4.863,9.485-8.575,15.204-11.034c3.017-1.297,6.463-2.354,9.961-3.058c1.19-0.237,2.359,0.534,2.601,1.73
										c0.239,1.196-0.535,2.36-1.73,2.6c-3.205,0.644-6.347,1.607-9.09,2.785c-5.126,2.205-9.722,5.545-13.66,9.928
										C2059.27,975.559,2058.667,975.806,2058.063,975.806z"/>
									<path style="fill:#FFFFFF;" d="M2085.792,982.619c-2.569,0-5.126-0.151-7.662-0.453
										c-9.588-1.141-18.376-5.806-18.748-6.003c-0.908-0.486-1.356-1.537-1.085-2.53c0.272-0.994,1.231-1.666,2.226-1.622
										c0.095,0.004,8.737,0.334,20.063-3.061c3.759-1.127,7.414-2.691,10.869-4.65c1.057-0.603,2.407-0.229,3.011,0.832
										c0.602,1.061,0.229,2.408-0.833,3.01c-3.742,2.121-7.703,3.816-11.779,5.038c-4.469,1.34-8.525,2.135-11.883,2.604
										c2.625,0.858,5.629,1.634,8.68,1.997c4.876,0.58,9.851,0.56,14.788-0.056c1.223-0.155,2.314,0.707,2.465,1.917
										c0.151,1.21-0.708,2.314-1.917,2.466C2091.261,982.448,2088.522,982.619,2085.792,982.619z"/>
								</g>
							</g>
							<g>
								<path style="fill:#D87355;" d="M1995.423,965.299c-4.134-2.921-16.172-16.16-20.66-25.081
									c-5.698-11.325-7.238-22.665,1.892-26.497c3.478-1.46,9.375,0.701,13.369,6.023c2.33-3.732,5.604-9.122,13.01-8.498
									c7.277,0.613,10.387,12.552,6.907,25.734C2006.274,950.864,1999.778,961.108,1995.423,965.299z"/>
								<path style="fill:#D87355;" d="M2007.196,965.619c-1.531-4.824-3.13-22.647-1.32-32.468
									c2.298-12.468,7.919-22.436,17.51-19.977c3.654,0.937,7.048,6.221,7.019,12.874c4.111-1.567,9.976-3.886,15.502,1.083
									c5.43,4.884,0.698,16.278-10.036,24.682C2024.564,960.667,2013.199,964.909,2007.196,965.619z"/>
								<path style="fill:#D87355;" d="M2005.177,971.897c2.091-4.609,12.829-18.923,20.746-25.01
									c10.05-7.727,20.898-11.373,26.38-3.128c2.089,3.141,1.075,9.339-3.399,14.263c4.104,1.586,10.013,3.788,10.794,11.178
									c0.767,7.263-10.374,12.563-23.974,11.626C2021.397,979.839,2010.113,975.386,2005.177,971.897z"/>
								<g>
									<path style="fill:#F7F1EB;" d="M2020.02,921.994c-0.067,1.053-0.975,1.853-2.028,1.786
										c-1.053-0.067-1.853-0.975-1.786-2.028c0.067-1.053,0.974-1.853,2.028-1.786
										C2019.287,920.033,2020.086,920.941,2020.02,921.994z"/>
									<path style="fill:#F7F1EB;" d="M2012.271,942.416c-0.459,0-0.923-0.143-1.32-0.439c-0.977-0.731-1.178-2.115-0.446-3.091
										c2.029-2.715,3.535-5.726,4.473-8.949c0.709-2.442,1.083-4.975,1.109-7.525c0.013-1.218,1.046-2.217,2.23-2.186
										c1.221,0.012,2.2,1.011,2.187,2.231c-0.03,2.952-0.461,5.884-1.285,8.714c-1.087,3.735-2.827,7.22-5.176,10.36
										C2013.609,942.109,2012.944,942.416,2012.271,942.416z"/>
								</g>
								<g>
									<path style="fill:#D3BBA3;" d="M2022.28,932.619c-0.047,0.745-0.689,1.31-1.434,1.263c-0.745-0.047-1.31-0.689-1.263-1.434
										c0.047-0.745,0.689-1.31,1.434-1.263C2021.761,931.232,2022.327,931.874,2022.28,932.619z"/>
									<path style="fill:#F7F1EB;" d="M2013.975,949.02c-0.125,0-0.25-0.011-0.377-0.033c-1.201-0.207-2.008-1.349-1.801-2.551
										c0.664-3.858,2.001-7.518,3.968-10.88c0.917-1.564,1.978-3.065,3.153-4.464c0.785-0.932,2.178-1.056,3.112-0.269
										c0.934,0.785,1.054,2.178,0.269,3.112c-1.016,1.209-1.932,2.505-2.722,3.854c-1.699,2.902-2.853,6.064-3.429,9.398
										C2015.964,948.261,2015.03,949.02,2013.975,949.02z"/>
								</g>
								<g>
									<path style="fill:#D3BBA3;" d="M2029.808,929.602c-0.047,0.745-0.689,1.31-1.434,1.263
										c-0.745-0.047-1.31-0.689-1.263-1.434c0.047-0.745,0.689-1.31,1.434-1.263
										C2029.29,928.216,2029.855,928.857,2029.808,929.602z"/>
									<path style="fill:#F7F1EB;" d="M2019.608,948.328c-0.125,0-0.252-0.011-0.38-0.033c-1.201-0.209-2.008-1.352-1.799-2.553
										c0.671-3.866,2.006-7.526,3.972-10.878c1.484-2.536,3.317-4.865,5.443-6.921c0.88-0.849,2.277-0.824,3.123,0.053
										c0.848,0.877,0.824,2.275-0.052,3.122c-1.84,1.777-3.423,3.788-4.703,5.978c-1.697,2.895-2.851,6.057-3.431,9.4
										C2021.597,947.571,2020.663,948.328,2019.608,948.328z"/>
								</g>
								<g>
									<path style="fill:#D87355;" d="M2001.836,972.751c3.403-3.746,8.035-9.876,10.73-18.443
										c3.985-12.665,3.977-31.411-4.165-34.868c-1.552-0.659-5.642-1.715-13.439,3.701c-3.082-3.139-7.021-6.244-10.143-5.196
										c-5.911,1.984-7.138,18.261-3.286,30.298C1985.911,961.92,1996.677,969.601,2001.836,972.751z"/>
									<path style="fill:#FFFFFF;" d="M1998.952,970.617c-0.699,0-1.38-0.334-1.803-0.934c-0.289-0.407-7.074-10.091-9.819-21.228
										c-1.503-6.095-2.258-12.397-2.249-18.732c0.002-1.219,0.99-2.205,2.208-2.205c0,0,0.002,0,0.004,0
										c1.218,0.002,2.206,0.992,2.204,2.212c-0.009,5.976,0.705,11.921,2.12,17.668c1.059,4.289,2.808,8.412,4.494,11.769
										c-0.024-4.342,0.27-9.926,1.346-16.278c0.845-4.98,2.267-9.904,4.223-14.634c0.466-1.129,1.764-1.661,2.883-1.197
										c1.128,0.466,1.663,1.758,1.197,2.885c-1.829,4.426-3.157,9.03-3.947,13.685c-2.39,14.075-0.703,24.309-0.686,24.411
										c0.175,1.016-0.38,2.017-1.333,2.411C1999.522,970.562,1999.235,970.617,1998.952,970.617z"/>
								</g>
								<g>
									<path style="fill:#D87355;" d="M2001.623,972.899c0.437-5.042,1.79-12.605,6.247-20.403
										c6.588-11.527,20.351-24.254,28.419-20.628c1.538,0.691,5.091,2.976,6.412,12.377c4.397,0.13,9.352,0.911,10.703,3.915
										c2.559,5.686-8.554,17.642-20.004,22.991C2020.389,977.23,2007.439,974.546,2001.623,972.899z"/>
									<path style="fill:#FFFFFF;" d="M2001.624,975.108c-0.065,0-0.127-0.003-0.194-0.008c-1.214-0.106-2.114-1.176-2.008-2.391
										c0.671-7.733,2.868-14.902,6.53-21.308c1.939-3.391,4.451-6.855,7.268-10.02c0.811-0.913,2.208-0.99,3.118-0.182
										c0.91,0.811,0.992,2.207,0.181,3.118c-2.616,2.94-4.945,6.147-6.733,9.276c-3.343,5.846-5.348,12.406-5.965,19.498
										C2003.723,974.24,2002.759,975.108,2001.624,975.108z"/>
									<path style="fill:#FFFFFF;" d="M2004.327,973.997c-0.893,0-1.714-0.543-2.051-1.394c-0.382-0.958-0.047-2.051,0.802-2.635
										c0.084-0.059,8.648-6.008,17.07-17.465c2.801-3.811,5.187-7.967,7.091-12.352c0.483-1.119,1.781-1.634,2.905-1.146
										c1.117,0.485,1.633,1.786,1.145,2.905c-2.034,4.688-4.585,9.133-7.583,13.209c-3.815,5.191-7.626,9.284-10.761,12.287
										c3.584-1.122,7.764-2.732,11.583-4.954c5.113-2.977,9.882-6.597,14.171-10.76c0.875-0.849,2.273-0.829,3.123,0.047
										c0.85,0.875,0.828,2.273-0.047,3.123c-4.546,4.411-9.601,8.249-15.025,11.407c-9.914,5.77-21.592,7.627-22.084,7.703
										C2004.551,973.989,2004.439,973.997,2004.327,973.997z"/>
								</g>
							</g>
						</g>
					</g>
					<g>
						<path style="fill:#BC8271;" d="M1783.8,1076.143c35.769-20.75,87.096,56.152,109.613,94.527
							c19.615,33.43,64.661,127.934,31.153,144.096c-33.462,16.139-68.347-22.935-121.151-81.846
							C1734.186,1155.684,1752.82,1094.115,1783.8,1076.143z"/>
						<g>
							<path style="fill:#BC8271;" d="M1840.337,1253.668c35.267-54.981,103.875-150.801,106.921-180.215
								c0.624-6.026,6.958-27.367-5.384-35.352c-10.692-6.917-26.261,2.256-28.846-2.306c-1.261-2.224,1.731-12.296,19.231-19.405
								c-0.043-0.66-1.25-7.397,2.115-11.528c4.113-5.049,10.699-4.178,11.346-4.035c-0.865-3.747-0.096-7.877,1.442-9.991
								c2.35-3.229,7.019-4.515,13.942-3.843c-0.385-2.209-0.996-5.227,2.212-9.222c7.019-8.742,33.081,1.887,47.21,17.676
								c17.256,19.283,14.637,48.547,10.962,70.895c-14.49,88.119-66.51,197.196-87.69,239.776
								C1902.643,1288.636,1871.49,1271.152,1840.337,1253.668z"/>
							<path style="fill:#363E44;" d="M1851.922,1238.103c-0.418,0-0.839-0.118-1.214-0.365c-1.018-0.672-1.298-2.041-0.628-3.06
								c5.027-7.619,10.403-15.688,15.95-24.012c8.652-12.983,17.598-26.409,26.323-39.786c0.671-1.022,2.042-1.307,3.056-0.643
								c1.022,0.667,1.311,2.035,0.645,3.057c-8.739,13.396-17.691,26.83-26.349,39.823c-5.543,8.318-10.915,16.382-15.937,23.995
								C1853.343,1237.754,1852.64,1238.103,1851.922,1238.103z"/>
							<g>
								<path style="fill:#363E44;" d="M1956.39,1025.801c-0.485,0-0.973-0.159-1.38-0.487c-3.345-2.686-7.125-4.601-11.238-5.691
									c-3.259-0.863-6.623-1.175-10.002-0.922c-1.244,0.086-2.275-0.824-2.366-2.039c-0.09-1.216,0.822-2.276,2.038-2.366
									c3.867-0.287,7.727,0.067,11.46,1.058c4.714,1.249,9.047,3.442,12.873,6.517c0.951,0.764,1.102,2.154,0.339,3.104
									C1957.677,1025.518,1957.036,1025.801,1956.39,1025.801z"/>
								<path style="fill:#363E44;" d="M1968.786,1009.878c-0.485,0-0.973-0.159-1.38-0.486c-3.347-2.687-7.13-4.602-11.238-5.691
									c-3.261-0.864-6.629-1.176-10.005-0.922c-1.264,0.085-2.275-0.824-2.366-2.039c-0.091-1.216,0.822-2.276,2.038-2.366
									c3.867-0.287,7.725,0.068,11.462,1.058c4.71,1.248,9.041,3.44,12.873,6.516c0.951,0.763,1.104,2.153,0.341,3.104
									C1970.073,1009.596,1969.433,1009.878,1968.786,1009.878z"/>
								<path style="fill:#363E44;" d="M1984.397,998.4c-0.546,0-1.089-0.2-1.516-0.603c-3.121-2.948-6.733-5.161-10.742-6.578
									c-3.179-1.123-6.509-1.704-9.899-1.725c-1.219-0.008-2.202-1.003-2.193-2.222c0.009-1.215,0.994-2.194,2.208-2.194
									c0.004,0,0.009,0,0.015,0c3.882,0.025,7.697,0.691,11.339,1.978c4.596,1.624,8.734,4.158,12.303,7.533
									c0.886,0.838,0.927,2.236,0.089,3.122C1985.568,998.168,1984.984,998.4,1984.397,998.4z"/>
							</g>
						</g>
					</g>
					<g>
						<path style="fill:#BC8271;" d="M1664.365,1085.587c13.169-47.952-73.59-59.118-118.085-69.217
							c-38.762-8.797-153.396-32.022-158.827,5.688c-5.423,37.657,41.682,64.198,117.537,92.916
							C1675.168,1179.402,1653.181,1126.309,1664.365,1085.587z"/>
						<path style="fill:#BC8271;" d="M1377.005,820.013c-8.951-23.932-7.103-34.458-3.262-35.755
							c6.46-2.18,22.472,15.126,39.964,48.456C1403.165,830.091,1387.548,822.635,1377.005,820.013z"/>
						<path style="fill:#FFFFFF;" d="M1334.47,812.021c-0.455,0-0.917-0.141-1.311-0.433c-0.981-0.726-1.188-2.109-0.462-3.089
							l8.312-11.233c0.727-0.979,2.107-1.189,3.088-0.462c0.981,0.726,1.188,2.109,0.461,3.089l-8.312,11.233
							C1335.814,811.712,1335.148,812.021,1334.47,812.021z"/>
						<g>
							<path style="fill:#BC8271;" d="M1482.422,1015.98c0-0.003-57.284-159.08-66.59-179.148c-0.974-2.102-2.678-5.818-6.119-9.87
								c-12.751-15.011-28.931-10.556-49.547-20.227c-23.393-10.974-30.346-29.95-36.34-27.192c-4.17,1.919-3.61,9.643,3.43,25.101
								c0.001,0-0.001,0-0.002,0c-6.633-11.042-16.253-24.886-22.075-21.207c-6.495,4.607,2.888,22.056,9.086,32.466
								c-7.503-12.6-15.326-17.166-18.06-14.307c-4.304,4.501-1.302,15.571,9.74,31.839c0,0.001,0-0.026,0-0.026
								c-11.042-9.197-14.278-9.889-16.078-6.772c-3.287,5.69,5.679,18.895,15.371,29.364c10.91,11.786,23.479,17.142,31.476,20.333
								c0.002,0.001,0.011,0.001,0.012,0.003c22.244,67.454,35.383,109.306,52.433,164.09
								C1397.931,1068.615,1488.24,1074.535,1482.422,1015.98z"/>
							<path style="fill:#363E44;" d="M1485.484,1025.665c-0.882,0-1.717-0.533-2.057-1.405c-0.045-0.119-4.686-11.988-7.35-19.356
								c-0.414-1.147,0.179-2.413,1.326-2.828c1.147-0.412,2.411,0.178,2.827,1.326c2.644,7.315,7.264,19.131,7.311,19.249
								c0.444,1.136-0.116,2.417-1.253,2.861C1486.026,1025.616,1485.752,1025.665,1485.484,1025.665z"/>
							<g>
								<path style="fill:#363E44;" d="M1399.011,821.734c-0.323,0-0.654-0.072-0.964-0.223c-4.786-2.33-10.194-3.505-15.922-4.75
									c-2.786-0.606-5.665-1.231-8.678-2.024c-1.18-0.31-1.885-1.518-1.574-2.697c0.311-1.181,1.529-1.882,2.696-1.574
									c2.922,0.768,5.756,1.384,8.495,1.979c5.993,1.302,11.656,2.533,16.916,5.095c1.098,0.534,1.553,1.856,1.02,2.952
									C1400.616,821.278,1399.831,821.734,1399.011,821.734z"/>
								<path style="fill:#363E44;" d="M1375.588,864.756c-0.895,0-1.738-0.549-2.07-1.439c-1.477-3.968-4.512-9.629-10.574-14.063
									c-8.588-6.275-17.945-6.057-21.57-5.672c-1.214,0.135-2.299-0.75-2.428-1.963c-0.13-1.213,0.75-2.3,1.962-2.429
									c4.134-0.439,14.814-0.684,24.641,6.499c6.949,5.08,10.421,11.552,12.109,16.087c0.425,1.143-0.157,2.414-1.301,2.84
									C1376.106,864.711,1375.845,864.756,1375.588,864.756z"/>
								<path style="fill:#363E44;" d="M1345.26,820.709c-0.343,0-0.69-0.08-1.016-0.249c-2.886-1.499-5.639-3.269-8.187-5.26
									c-3.705-2.898-7.013-6.286-9.83-10.071c-0.727-0.979-0.524-2.362,0.455-3.09c0.975-0.731,2.362-0.525,3.091,0.453
									c2.579,3.468,5.609,6.573,9.006,9.228c2.333,1.825,4.857,3.446,7.501,4.82c1.083,0.562,1.503,1.896,0.942,2.978
									C1346.828,820.275,1346.058,820.709,1345.26,820.709z"/>
								<path style="fill:#363E44;" d="M1331.356,830.953c-0.343,0-0.69-0.08-1.016-0.249c-2.885-1.499-5.64-3.269-8.186-5.261
									c-3.701-2.894-7.007-6.282-9.828-10.07c-0.729-0.979-0.526-2.362,0.451-3.09c0.983-0.731,2.361-0.524,3.09,0.452
									c2.586,3.473,5.618,6.578,9.008,9.229c2.331,1.825,4.857,3.447,7.501,4.82c1.083,0.562,1.503,1.896,0.942,2.978
									C1332.924,830.519,1332.154,830.953,1331.356,830.953z"/>
								<path style="fill:#363E44;" d="M1323.651,850.488c-0.343,0-0.69-0.08-1.016-0.249c-2.885-1.499-5.64-3.269-8.187-5.261
									c-3.698-2.892-7.005-6.28-9.828-10.069c-0.729-0.978-0.526-2.362,0.451-3.09c0.981-0.731,2.362-0.524,3.09,0.452
									c2.588,3.474,5.618,6.579,9.008,9.229c2.331,1.825,4.857,3.447,7.501,4.821c1.083,0.562,1.503,1.896,0.943,2.978
									C1325.219,850.054,1324.449,850.488,1323.651,850.488z"/>
							</g>
						</g>
					</g>
					<g>
						<path style="fill:#FFFFFF;" d="M1843.416,1062.687l-246.538-33.793l-4.415,76.099c-11.983,5.902-20.231,18.224-20.231,32.475
							c0,12.753,6.608,23.957,16.584,30.403l-9.034,126.296c50.056,35.334,102.321,41.959,170.78,23.556l7.303-32.32
							L1843.416,1062.687z"/>
						<path style="fill:#363E44;" d="M1718.078,1207.159c-12.079,0-23.216-5.507-30.557-15.108
							c-0.742-0.969-0.556-2.355,0.412-3.096c0.973-0.741,2.357-0.555,3.095,0.413c6.5,8.5,16.36,13.374,27.05,13.374
							c16.153,0,30.177-11.464,33.35-27.258c0.239-1.195,1.406-1.968,2.601-1.73c1.195,0.24,1.969,1.405,1.729,2.6
							C1752.174,1194.203,1736.328,1207.159,1718.078,1207.159z"/>
					</g>
					<path style="fill:#E6D0BE;" d="M1703.903,1322.23c-78.919,0-117.418-21.251-125.294-26.194
						c-1.033-0.649-1.346-2.012-0.697-3.045c0.649-1.033,2.012-1.345,3.043-0.697c25.114,15.756,84.541,31.293,169.399,23.228
						c1.233-0.109,2.292,0.776,2.407,1.99c0.117,1.214-0.774,2.292-1.988,2.408C1733.792,1321.533,1718.18,1322.23,1703.903,1322.23
						z"/>
				</g>
				<g>
					<path style="fill:#BC8271;" d="M1748.236,932.106c6.74,28.426-6.255,76.352-34.707,83.086
						c-28.451,6.734-61.586-30.275-68.326-58.702c-6.74-28.426,13.527-49.316,41.978-56.049
						C1715.633,893.707,1741.496,903.679,1748.236,932.106z"/>
					<path style="fill:#BC8271;" d="M1767.526,947.157c2.779-11.844-1.932-23.076-10.521-25.088
						c-8.59-2.012-17.807,5.958-20.586,17.801c-2.779,11.843,1.932,23.076,10.522,25.088
						C1755.531,966.97,1764.747,959,1767.526,947.157z"/>
					<path style="fill:#363E44;" d="M1670.282,962.455c-0.563,0-1.134-0.018-1.719-0.057c-10.725-0.705-17.117-7.755-18.821-9.899
						c-0.759-0.955-0.6-2.344,0.356-3.103c0.953-0.761,2.346-0.599,3.103,0.355c1.417,1.785,6.737,7.654,15.65,8.24
						c8.357,0.547,14.193-3.98,15.795-5.381c0.921-0.802,2.314-0.709,3.116,0.21c0.802,0.919,0.71,2.314-0.209,3.116
						C1685.233,957.964,1679.091,962.455,1670.282,962.455z"/>
					<path style="fill:#363E44;" d="M1716.187,955.741c-4.969,0-8.907-1.416-10.82-2.266c-1.115-0.495-1.615-1.8-1.121-2.915
						c0.496-1.112,1.796-1.619,2.916-1.121c1.943,0.864,8.898,3.45,16.679,0.465c8.34-3.197,11.682-10.376,12.508-12.501
						c0.442-1.139,1.721-1.697,2.857-1.258c1.136,0.442,1.699,1.722,1.257,2.859c-0.992,2.552-5.008,11.178-15.04,15.025
						C1722.133,955.289,1718.995,955.741,1716.187,955.741z"/>
					<rect x="1672.533" y="972.48" style="fill:#BC8271;" width="64.042" height="88.335"/>
					
						<ellipse transform="matrix(0.1664 -0.9861 0.9861 0.1664 361.2293 2580.9111)" style="fill:#BC8271;" cx="1707.08" cy="1076.809" rx="35.173" ry="97.956"/>
					<path style="fill:#363E44;" d="M1749.315,961.765c-0.086,0-0.172-0.005-0.261-0.015c-1.212-0.143-2.077-1.241-1.934-2.453
						c1.152-9.743,0.796-18.97-1.031-26.683c-0.405-1.698-0.893-3.376-1.451-4.984c-0.401-1.152,0.209-2.411,1.361-2.811
						c1.154-0.403,2.409,0.21,2.81,1.361c0.608,1.748,1.139,3.569,1.577,5.413c1.945,8.212,2.333,17.97,1.121,28.221
						C1751.372,960.939,1750.419,961.765,1749.315,961.765z"/>
					<path style="fill:#363E44;" d="M1706.476,1018.775c-9.754,0-20.194-3.912-30.635-11.548c-0.983-0.72-1.197-2.102-0.479-3.086
						c0.72-0.985,2.099-1.199,3.088-0.479c8.564,6.266,21.598,13.067,35.015,9.892c7.35-1.74,14.024-6.301,19.836-13.559
						c0.761-0.95,2.15-1.107,3.103-0.343c0.953,0.762,1.106,2.152,0.343,3.104c-6.442,8.044-13.934,13.123-22.265,15.095
						C1711.878,1018.469,1709.204,1018.775,1706.476,1018.775z"/>
					<path style="fill:#363E44;" d="M1694.738,978.824c-0.285,0-0.572-0.055-0.85-0.17c-4.456-1.855-5.941-5.002-5.859-7.133
						c0.086-2.339,1.281-3.696,2.336-4.894c0.707-0.803,1.438-1.634,2.085-2.95c0.393-0.801,0.673-1.674,0.833-2.592
						c0.209-1.201,1.335-2.009,2.556-1.796c1.201,0.209,2.006,1.353,1.797,2.554c-0.233,1.33-0.643,2.602-1.219,3.78
						c-0.908,1.847-1.922,2.999-2.737,3.924c-0.919,1.043-1.21,1.408-1.238,2.139c-0.002,0.41,0.569,1.819,3.146,2.891
						c1.126,0.469,1.659,1.762,1.188,2.887C1696.424,978.312,1695.602,978.824,1694.738,978.824z"/>
					<path style="fill:#363E44;" d="M1704.44,990.464c-0.621,0-1.083-0.044-1.318-0.072c-1.212-0.147-2.075-1.248-1.928-2.459
						c0.149-1.21,1.275-2.072,2.458-1.926c0.414,0.05,4.11,0.41,6.819-2.398c2.446-2.54,2.26-5.781,2.198-6.406
						c-0.121-1.214,0.766-2.295,1.98-2.416c1.199-0.119,2.295,0.765,2.415,1.979c0.134,1.353,0.287,6.066-3.412,9.906
						C1710.483,989.962,1706.547,990.464,1704.44,990.464z"/>
					<path style="fill:#363E44;" d="M1715.817,899.694c-11.146-14.849-22.726-17.617-35.563-16.616
						c-20.789,1.621-33.214,26.857-22.824,45.43c10.085,18.031,28.309,24.748,26.894,38.536
						c-2.071,20.176-29.488,23.141-30.078,49.496c-0.555,24.781,36.101,32.922,36.094,57.274
						c-0.006,22.527-32.556,45.607-85.989,40.304c-62.161-6.169-85.914-29.058-80.682-51.617
						c6.724-28.991,46.889-28.814,53.788-48.435c6.38-18.143-21.51-47.203-11.324-69.825c6.727-14.939,31.56-18.897,48.834-33.41
						c15.57-13.081,15.658-36.945,36.094-48.082C1668.774,853.096,1699.628,854.618,1715.817,899.694z"/>
					<g>
						<path style="fill:#FFFFFF;" d="M1628.56,935.66c-1.029,0-1.95-0.724-2.163-1.771c-6.388-31.593,21.493-52.18,47.309-60.209
							c33.378-10.382,74.245-4.315,87.772,27.362c0.479,1.122-0.043,2.42-1.165,2.898c-1.117,0.476-2.42-0.04-2.898-1.164
							c-12.498-29.269-50.907-34.672-82.397-24.88c-24.059,7.483-50.096,26.408-44.29,55.116c0.241,1.196-0.533,2.36-1.727,2.602
							C1628.851,935.646,1628.704,935.66,1628.56,935.66z"/>
						<path style="fill:#FFFFFF;" d="M1649.989,893.555c-1.044-5.164-6.077-8.504-11.24-7.46c-5.164,1.044-8.504,6.077-7.46,11.24
							c1.044,5.164,6.077,8.504,11.24,7.46C1647.694,903.751,1651.033,898.719,1649.989,893.555z"/>
						
							<ellipse transform="matrix(0.553 -0.8332 0.8332 0.553 6.8943 1776.7606)" style="fill:#FFFFFF;" cx="1659.225" cy="881.955" rx="17.843" ry="17.843"/>
						
							<ellipse transform="matrix(0.553 -0.8332 0.8332 0.553 25.4029 1795.0885)" style="fill:#FFFFFF;" cx="1685.565" cy="873.871" rx="10.367" ry="10.367"/>
					</g>
				</g>
			</g>
		</g>
		<g>
			<path style="fill:#9E9569;" d="M2072.071,440.918c13.076,19.001,14.25,38.576,3.772,58.719l-32.567,2.529
				c14.587-12.884,15.693-32.19-1.103-60.021L2072.071,440.918z"/>
			<path style="fill:#9E9569;" d="M1892.143,814.233c-6.691,22.074-21.256,35.205-43.536,39.583l-22.295-23.873
				c19.17,3.361,34.947-7.82,46.219-38.31L1892.143,814.233z"/>
			<path style="fill:#EFBC73;" d="M2065.583,627.039c11.788-19.826,29.077-29.081,51.757-27.99l15.921,28.522
				c-17.805-7.86-35.803-0.788-54.056,26.11L2065.583,627.039z"/>
			<path style="fill:#D87355;" d="M1977.474,389.252c-21.964,7.043-41.047,2.524-57.314-13.316l6.967-31.913
				c8.132,17.682,26.299,24.307,57.791,16.248L1977.474,389.252z"/>
			<path style="fill:#E6D0BE;" d="M2029.429,581.436c-6.745,22.057-21.343,35.152-43.633,39.476l-22.236-23.928
				c19.161,3.409,34.967-7.733,46.313-38.195L2029.429,581.436z"/>
			<path style="fill:#9E9569;" d="M1891.598,460.682c-21.964,7.043-41.047,2.524-57.314-13.316l6.967-31.913
				c8.132,17.682,26.299,24.307,57.791,16.248L1891.598,460.682z"/>
			<path style="fill:#D87355;" d="M1802.039,748.24c-20.932-9.689-31.915-25.935-33.16-48.607l26.735-18.767
				c-5.989,18.518,2.895,35.694,31.526,51.087L1802.039,748.24z"/>
			<path style="fill:#E6D0BE;" d="M1955.252,516.006c-10.78,20.392-27.583,30.502-50.288,30.549l-17.33-27.688
				c18.176,6.957,35.797-1.008,52.679-28.787L1955.252,516.006z"/>
			<path style="fill:#D87355;" d="M1772.835,504.124c-17.428,15.109-36.751,18.455-57.935,10.282l-6.137-32.083
				c14.427,13.063,33.736,12.014,59.526-7.775L1772.835,504.124z"/>
			<path style="fill:#EFBC73;" d="M1927.044,626.583c2.054,22.974-6.54,40.601-25.563,52.997l-29.608-13.797
				c19.035-4.055,29.483-20.327,28.528-52.82L1927.044,626.583z"/>
			<path style="fill:#FFFFFF;" d="M1834.251,585.16c2.054,22.974-6.54,40.601-25.563,52.997l-29.608-13.797
				c19.035-4.055,29.483-20.327,28.528-52.82L1834.251,585.16z"/>
			<path style="fill:#9E9569;" d="M1667.538,646.225c-18.584-13.662-26.113-31.769-22.82-54.235l29.936-13.069
				c-9.555,16.955-4.268,35.556,20.726,56.34L1667.538,646.225z"/>
		</g>
		<g>
			<path style="fill:#F2E6DC;" d="M398.133,723.588c13.076,19.001,14.25,38.576,3.772,58.719l-32.567,2.529
				c14.587-12.884,15.693-32.19-1.102-60.021L398.133,723.588z"/>
			<path style="fill:#9E9569;" d="M562.71,1286.822c-6.691,22.074-21.256,35.205-43.536,39.583l-22.295-23.873
				c19.17,3.361,34.947-7.82,46.219-38.309L562.71,1286.822z"/>
			<path style="fill:#FFFFFF;" d="M877.47,504.47c11.788-19.826,29.077-29.081,51.757-27.99l15.921,28.522
				c-17.805-7.86-35.803-0.788-54.056,26.11L877.47,504.47z"/>
			<path style="fill:#E6D0BE;" d="M485.98,660.536c-21.964,7.043-41.047,2.524-57.314-13.316l6.967-31.913
				c8.132,17.682,26.299,24.307,57.791,16.248L485.98,660.536z"/>
			<path style="fill:#D87355;" d="M472.606,1220.829c-20.932-9.689-31.915-25.935-33.16-48.607l26.735-18.767
				c-5.988,18.518,2.895,35.694,31.526,51.087L472.606,1220.829z"/>
			<path style="fill:#EFBC73;" d="M443.401,976.713c-17.428,15.109-36.751,18.454-57.935,10.282l-6.137-32.083
				c14.427,13.063,33.736,12.014,59.526-7.774L443.401,976.713z"/>
			<path style="fill:#EFBC73;" d="M597.61,1099.172c2.054,22.974-6.54,40.601-25.563,52.997l-29.608-13.797
				c19.035-4.055,29.483-20.328,28.528-52.82L597.61,1099.172z"/>
			<path style="fill:#FFFFFF;" d="M504.818,1057.75c2.054,22.974-6.54,40.601-25.563,52.997l-29.608-13.797
				c19.035-4.055,29.483-20.327,28.528-52.82L504.818,1057.75z"/>
			<path style="fill:#FFFFFF;" d="M382.271,1118.814c-18.584-13.662-26.113-31.769-22.82-54.235l29.936-13.069
				c-9.555,16.955-4.268,35.556,20.725,56.34L382.271,1118.814z"/>
		</g>
		<g>
			<g>
				<g>
					<path style="fill:#776E42;" d="M630.499,1363.332c-12.005,17.057-5.731,42.128-5.731,42.128s25.737-2.583,37.742-19.639
						c12.005-17.057,5.731-42.128,5.731-42.128S642.504,1346.276,630.499,1363.332z"/>
					<path style="fill:#776E42;" d="M563.278,1428.695c11.55,17.87,38.13,21.25,38.13,21.25s7.855-25.594-3.695-43.465
						c-11.55-17.87-38.13-21.25-38.13-21.25S551.729,1410.825,563.278,1428.695z"/>
					<path style="fill:#776E42;" d="M559.219,1597.572c-17.247,18.987-13.739,50.237-13.739,50.237s31.471,0.465,48.718-18.522
						c17.247-18.987,13.74-50.237,13.74-50.237S576.466,1578.584,559.219,1597.572z"/>
					<path style="fill:#776E42;" d="M621.324,1530.822c22.95-6.077,35.505-33.812,35.505-33.812s-24.655-17.883-47.606-11.806
						c-22.951,6.077-35.505,33.812-35.505,33.812S598.373,1536.898,621.324,1530.822z"/>
					<path style="fill:#363E44;" d="M560.652,1904.636c-1.016,0-1.93-0.705-2.155-1.739
						c-9.047-41.517-20.321-137.615-20.092-186.426c0.673-144.039,50.57-256.905,92.311-326.224c0.63-1.045,1.991-1.381,3.03-0.753
						c1.045,0.629,1.382,1.986,0.753,3.031c-41.454,68.844-91.01,180.932-91.677,323.966
						c-0.227,48.553,10.99,144.158,19.991,185.465c0.26,1.192-0.496,2.369-1.688,2.628
						C560.966,1904.62,560.808,1904.636,560.652,1904.636z"/>
					<path style="fill:#8B865C;" d="M590.663,1734.591c-13.442,21.706-44.332,26.943-44.332,26.943s-9.096-29.955,4.346-51.661
						c13.442-21.706,44.332-26.943,44.332-26.943S604.105,1712.885,590.663,1734.591z"/>
				</g>
				<g>
					<path style="fill:#8B865C;" d="M384.203,1328.218c9.546,18.436-3.598,44.174-3.598,44.174s-28.621-4.152-38.167-22.588
						c-9.546-18.436,3.598-44.174,3.598-44.174S374.657,1309.782,384.203,1328.218z"/>
					<path style="fill:#8B865C;" d="M465.912,1400.279c-12.436,20.081-42.51,24-42.51,24s-9.912-28.638,2.524-48.719
						c12.436-20.081,42.51-24,42.51-24S478.348,1380.198,465.912,1400.279z"/>
					<path style="fill:#8B865C;" d="M541.37,1532.538c-13.442,21.706-44.333,26.943-44.333,26.943s-9.096-29.955,4.346-51.661
						c13.442-21.706,44.333-26.943,44.333-26.943S554.813,1510.832,541.37,1532.538z"/>
					<path style="fill:#8B865C;" d="M476.322,1649.412c-19.176-16.865-19.187-48.169-19.187-48.169s31.08-3.959,50.257,12.906
						c19.176,16.865,19.187,48.169,19.187,48.169S495.499,1666.277,476.322,1649.412z"/>
					<path style="fill:#8B865C;" d="M415.359,1505.207c-23.577-1.662-41.034-26.442-41.034-26.442s20.768-22.083,44.344-20.421
						c23.577,1.663,41.034,26.442,41.034,26.442S438.935,1506.869,415.359,1505.207z"/>
					<path style="fill:#363E44;" d="M524.166,1927.039c-0.158,0-0.318-0.017-0.479-0.053c-1.192-0.263-1.943-1.442-1.68-2.633
						c18.83-85.149,19.976-171.218,3.403-255.815c-27.371-139.729-96.766-240.091-150.16-299.68
						c-0.814-0.908-0.738-2.304,0.17-3.118c0.909-0.814,2.307-0.736,3.118,0.171c53.765,60.001,123.641,161.063,151.206,301.778
						c16.69,85.196,15.537,171.871-3.425,257.616C526.092,1926.337,525.179,1927.039,524.166,1927.039z"/>
				</g>
				<g>
					<path style="fill:#776E42;" d="M392.074,1528.794c12.397,12.54,10.679,34.317,10.679,34.317s-21.817,1.446-34.213-11.094
						c-12.397-12.54-10.679-34.317-10.679-34.317S379.678,1516.253,392.074,1528.794z"/>
					<path style="fill:#776E42;" d="M457.267,1573.882c-7.125,16.512-28.809,23.046-28.809,23.046s-10.133-20.238-3.008-36.75
						c7.125-16.512,28.809-23.046,28.809-23.046S464.392,1557.37,457.267,1573.882z"/>
					<path style="fill:#776E42;" d="M517.941,1721.328c-6.003,20.828-30.054,32.192-30.054,32.192s-14.318-22.403-8.315-43.231
						s30.054-32.192,30.054-32.192S523.944,1700.5,517.941,1721.328z"/>
					<path style="fill:#776E42;" d="M481.349,1860.599c-14.922-15.732-12.526-42.205-12.526-42.205s26.588-0.966,41.509,14.767
						s12.526,42.205,12.526,42.205S496.27,1876.332,481.349,1860.599z"/>
					<path style="fill:#776E42;" d="M423.185,1667.133c-19.983-1.857-34.334-23.222-34.334-23.222s18.048-18.355,38.032-16.498
						c19.983,1.857,34.334,23.222,34.334,23.222S443.168,1668.99,423.185,1667.133z"/>
					<path style="fill:#363E44;" d="M523.566,1928.445c-0.037,0-0.072-0.001-0.108-0.003c-1.218-0.058-2.159-1.093-2.1-2.312
						c1.856-38.558-0.52-77.295-7.06-115.136c-20.579-119.063-77.556-205.52-121.728-257.083c-0.794-0.926-0.686-2.32,0.241-3.114
						c0.926-0.793,2.318-0.686,3.113,0.24c44.534,51.984,101.976,139.152,122.727,259.204c6.595,38.159,8.991,77.22,7.12,116.101
						C525.713,1927.525,524.736,1928.445,523.566,1928.445z"/>
				</g>
			</g>
			<rect x="431.434" y="1888.95" style="fill:#E6D0BE;" width="165.627" height="273.837"/>
		</g>
	</g>
</g>
</svg>
